<svg width="1186" height="724" viewBox="0 0 1186 724" fill="none" xmlns="http://www.w3.org/2000/svg">
<path d="M800.262 768.901C791.677 764.113 781.594 760.921 770.013 759.781C720.795 755.221 683.657 793.145 636.835 805.533C574.739 821.949 516.237 791.853 455.139 767.381C405.621 747.469 344.523 765.709 325.555 805.837C295.006 870.361 275.838 938.001 268.75 1006.4C267.452 1018.56 263.558 1033.61 247.984 1036.5C226.321 1040.53 215.738 1017.19 215.139 1000.17C212.444 922.041 221.429 793.297 212.244 747.393C210.347 737.893 197.868 731.813 185.688 734.549C170.414 737.969 160.431 749.141 161.828 761.225C163.925 779.389 172.311 801.201 172.311 801.201C173.609 814.349 152.344 821.341 140.664 811.537C117.702 792.157 101.329 767.153 82.361 744.961C-23.662 620.777 -227.222 571.985 -414.51 532.009C-431.381 528.437 -449.252 524.789 -466.123 528.437C-499.667 535.733 -511.747 566.361 -518.636 592.353C-520.133 597.977 -521.531 603.753 -519.934 609.377C-513.045 632.177 -469.618 628.909 -440.067 622.373C-257.572 582.017 -47.3225 645.857 57.802 764.797C67.2861 775.589 49.7155 788.205 36.1381 780.377C-108.221 696.929 -302.297 663.793 -479.102 695.561C-548.286 707.949 -618.07 729.761 -687.953 719.881C-700.033 718.209 -712.013 715.549 -723.893 712.585C-746.955 706.885 -759.134 732.725 -736.472 739.337C-684.459 754.537 -626.556 758.109 -572.346 748.077C-501.564 735.005 -423.395 701.565 -362.496 732.041C-293.711 766.393 -302.497 860.937 -225.026 882.065C-203.861 887.841 -173.113 892.249 -174.41 909.349C-175.509 922.649 -196.673 928.045 -213.245 932.073C-360.5 968.021 -390.749 1122.07 -515.741 1191.46C-556.572 1214.11 -605.89 1226.57 -646.722 1249.15C-672.579 1263.36 -695.241 1283.57 -704.825 1307.13C-713.61 1328.72 -696.04 1350.07 -721.497 1365.27C-766.722 1392.33 -833.71 1380.17 -883.227 1400.76C-935.041 1422.35 -954.608 1474.03 -1005.42 1496.75C-1052.54 1517.88 -1112.54 1508.3 -1164.46 1495.16C-1259.8 1471.06 -1357.24 1432.3 -1401.76 1363.75C-1412.74 1346.8 -1417.44 1322.33 -1396.17 1312.53C-1384.79 1307.29 -1370.31 1308.8 -1357.04 1308.04C-1298.93 1304.62 -1262.59 1256.82 -1207.49 1242.53C-1156.47 1229.23 -1098.57 1246.86 -1047.15 1234.48C-996.238 1222.16 -965.29 1184.32 -933.443 1151.64C-845.29 1061.5 -718.103 993.937 -576.539 962.017C-568.153 960.117 -559.068 958.369 -550.882 960.649C-536.506 964.677 -532.313 979.725 -538.503 990.365C-544.692 1001.01 -557.87 1008.15 -570.549 1014.68C-606.19 1033.08 -642.429 1050.86 -679.268 1067.81C-693.644 1074.5 -682.163 1091.14 -666.788 1085.82C-591.614 1059.75 -525.524 1023.58 -491.681 967.489C-487.088 959.889 -483.095 951.225 -486.29 943.169C-493.078 925.765 -524.626 924.397 -548.087 927.741C-660.699 943.777 -766.522 986.793 -846.788 1049.04C-908.086 1096.61 -957.603 1156.73 -1036.97 1184.92C-1087.29 1202.79 -1144.09 1205.75 -1198.7 1213.58C-1293.44 1227.18 -1384.09 1256.67 -1462.56 1299.23C-1471.25 1303.94 -1480.33 1309.41 -1483.62 1317.16C-1487.82 1327.2 -1480.93 1337.84 -1473.74 1346.88C-1410.75 1426.99 -1310.71 1489.76 -1195.41 1521.53C-1127.12 1540.38 -1044.86 1546.91 -986.954 1513.55C-942.927 1488.17 -919.566 1443.17 -868.651 1426.76C-830.016 1414.29 -784.791 1421.74 -744.658 1412.39C-697.936 1401.45 -659.301 1368.62 -617.171 1352.66C-601.797 1346.8 -604.692 1329.55 -621.564 1326.89C-631.048 1325.37 -639.534 1322.79 -645.224 1317.47C-666.09 1298.09 -628.652 1274 -598.902 1263.36C-528.02 1237.9 -465.225 1199.44 -417.405 1152.09C-371.381 1106.49 -339.335 1053.29 -290.716 1009.29C-242.097 965.285 -168.92 930.097 -94.5438 940.053C-63.7952 944.157 -30.3508 962.473 -36.0414 985.805C-38.7368 996.825 -49.5189 1005.57 -60.201 1013.32C-167.222 1091.45 -304.893 1145.71 -393.345 1236.22C-446.356 1290.49 -479.601 1355.92 -541.398 1404.56C-590.815 1443.48 -657.304 1469.62 -727.587 1477.75C-790.382 1485.05 -858.069 1478.82 -914.375 1501.24C-960.798 1519.7 -990.748 1554.06 -1016.01 1589.62C-1022.59 1598.9 -1013.61 1610.07 -999.832 1609.92H-999.433C-991.846 1609.84 -985.157 1606.12 -982.661 1600.64C-969.184 1571.39 -943.826 1540.15 -905.49 1545.16C-875.44 1549.12 -859.966 1573.67 -841.497 1592.13C-840.299 1593.27 -839.101 1594.41 -837.803 1595.55C-822.029 1608.93 -795.374 1591.53 -809.949 1577.31C-821.53 1566.06 -827.121 1553.3 -819.234 1540.38C-807.454 1521.15 -774.009 1518.18 -746.356 1515.3C-594.409 1499.41 -473.91 1407.15 -397.937 1305.69C-364.792 1261.46 -336.54 1213.43 -287.022 1179.15C-233.512 1142.14 -161.133 1125.34 -102.73 1092.97C-65.0929 1072.07 -33.6454 1044.63 -11.4824 1013.39C2.09497 994.317 12.1781 971.213 1.09656 951.225C-14.0781 924.093 -58.5039 916.645 -95.2426 907.373C-182.098 885.485 -254.876 833.349 -288.819 768.673C-300.3 746.861 -294.31 710.989 -263.661 713.877C-239.003 716.233 -235.209 741.465 -229.219 759.857C-210.25 818.149 -120.101 840.189 -53.7119 872.565C19.0665 907.981 74.4741 974.329 53.6089 1038.09C37.1364 1088.56 -21.4657 1124.43 -81.4656 1149.28C-107.921 1160.23 -135.475 1169.95 -162.43 1180.29C-179.702 1186.9 -168.321 1206.81 -150.251 1201.65C-91.1494 1184.85 -34.3442 1163.34 18.8669 1137.42C42.6273 1125.87 66.188 1113.03 81.8618 1095.24C112.511 1060.66 107.419 1014.31 90.3477 974.709C55.406 893.997 -26.3575 825.749 -128.786 791.929C-150.55 784.785 -178.104 771.789 -170.417 754.689C-161.931 735.765 -124.793 741.997 -102.131 752.181C-39.5356 780.225 21.0632 810.853 79.366 843.837C117.103 865.193 155.439 889.361 171.412 922.953C193.775 970.149 167.419 1027.3 201.662 1070.24C207.652 1077.77 215.938 1084.76 227.02 1087.27C249.282 1092.28 270.347 1077.23 282.527 1062.26C338.933 992.949 323.259 903.041 359.698 826.357C364.59 816.021 370.68 805.685 381.062 798.085C411.511 775.817 462.127 786.229 498.566 802.417C535.005 818.605 572.542 840.189 614.472 836.085C646.419 832.969 672.076 815.489 700.429 803.785C728.782 792.081 768.715 787.597 789.381 806.445C802.06 817.997 802.758 834.565 801.361 849.613C792.575 947.349 720.795 1040.68 613.175 1094.41C531.911 1134.99 433.175 1153.46 356.503 1198.98C314.174 1224.07 279.532 1256.82 232.81 1276.89C129.882 1321.12 -12.8801 1295.96 -102.63 1354.56C-118.304 1364.82 -132.38 1381.46 -122.896 1395.52C-116.807 1404.41 -103.429 1408.67 -91.0496 1412.01C-25.2594 1429.87 42.5275 1443.4 111.412 1452.44C133.276 1455.33 156.038 1457.77 177.302 1453.05C200.663 1447.96 219.532 1435.04 237.302 1422.5C359.099 1336.77 478.599 1249.07 595.504 1159.47C705.221 1075.41 818.432 981.169 838.598 863.597C844.588 829.777 833.407 787.445 800.262 768.901ZM-385.458 583.917C-387.455 585.741 -393.644 588.021 -397.338 588.933C-416.806 594.025 -436.872 596.837 -457.538 597.293C-463.228 597.445 -470.416 597.141 -474.909 594.633C-482.097 590.757 -478.503 585.057 -472.613 581.637C-457.737 573.125 -429.085 571.301 -411.415 572.213C-406.024 572.593 -375.275 574.569 -385.458 583.917ZM441.761 1226.57C430.879 1269.59 393.741 1295.66 346.22 1316.78C306.786 1334.26 280.031 1346.5 248.983 1363.83C214.54 1383.06 181.396 1406.09 136.87 1409.96V1409.88C106.62 1410.64 83.7587 1410.87 68.3843 1410.64C43.9252 1410.26 -60.8999 1404.95 -66.4905 1380.85C-70.0845 1365.12 -37.0398 1356.08 -22.6638 1352.5C-1.39929 1347.18 19.6656 1341.41 40.4309 1335.18C71.9783 1325.68 103.026 1324.16 136.87 1326.36C148.051 1326.82 158.234 1326.89 167.519 1326.74C217.236 1325.83 263.658 1309.34 298.4 1282.36C303.492 1278.4 309.981 1272.55 317.968 1264.72C323.658 1259.1 336.437 1246.33 356.104 1226.5C366.187 1216.24 379.764 1206.43 395.139 1201.49C405.122 1198.3 421.595 1195.41 431.778 1199.67C443.358 1204.61 444.057 1217.68 441.761 1226.57Z" fill="white"/>
<path d="M1998.26 768.901C1989.68 764.113 1979.59 760.921 1968.01 759.781C1918.8 755.221 1881.66 793.145 1834.84 805.533C1772.74 821.949 1714.24 791.853 1653.14 767.381C1603.62 747.469 1542.52 765.709 1523.56 805.837C1493.01 870.361 1473.84 938.001 1466.75 1006.4C1465.45 1018.56 1461.56 1033.61 1445.98 1036.5C1424.32 1040.53 1413.74 1017.19 1413.14 1000.17C1410.44 922.041 1419.43 793.297 1410.24 747.393C1408.35 737.893 1395.87 731.813 1383.69 734.549C1368.41 737.969 1358.43 749.141 1359.83 761.225C1361.92 779.389 1370.31 801.201 1370.31 801.201C1371.61 814.349 1350.34 821.341 1338.66 811.537C1315.7 792.157 1299.33 767.153 1280.36 744.961C1174.34 620.777 970.778 571.985 783.49 532.009C766.619 528.437 748.749 524.789 731.877 528.437C698.333 535.733 686.253 566.361 679.364 592.353C677.867 597.977 676.469 603.753 678.067 609.377C684.955 632.177 728.383 628.909 757.933 622.373C940.429 582.017 1150.68 645.857 1255.8 764.797C1265.29 775.589 1247.72 788.205 1234.14 780.377C1089.78 696.929 895.703 663.793 718.898 695.561C649.714 707.949 579.93 729.761 510.047 719.881C497.967 718.209 485.987 715.549 474.107 712.585C451.046 706.885 438.866 732.725 461.528 739.337C513.541 754.537 571.445 758.109 625.654 748.077C696.436 735.005 774.605 701.565 835.504 732.041C904.289 766.393 895.504 860.937 972.974 882.065C994.139 887.841 1024.89 892.249 1023.59 909.349C1022.49 922.649 1001.33 928.045 984.755 932.073C837.5 968.021 807.251 1122.07 682.26 1191.46C641.428 1214.11 592.11 1226.57 551.278 1249.15C525.421 1263.36 502.759 1283.57 493.175 1307.13C484.39 1328.72 501.961 1350.07 476.503 1365.27C431.279 1392.33 364.29 1380.17 314.773 1400.76C262.96 1422.35 243.392 1474.03 192.577 1496.75C145.456 1517.88 85.4559 1508.3 33.5426 1495.16C-61.7982 1471.06 -159.236 1432.3 -203.761 1363.75C-214.743 1346.8 -219.435 1322.33 -198.171 1312.53C-186.79 1307.29 -172.314 1308.8 -159.036 1308.04C-100.933 1304.62 -64.5935 1256.82 -9.48553 1242.53C41.5293 1229.23 99.4326 1246.86 150.847 1234.48C201.762 1222.16 232.71 1184.32 264.557 1151.64C352.71 1061.5 479.897 993.937 621.461 962.017C629.847 960.117 638.932 958.369 647.118 960.649C661.494 964.677 665.687 979.725 659.498 990.365C653.308 1001.01 640.13 1008.15 627.451 1014.68C591.811 1033.08 555.571 1050.86 518.733 1067.81C504.357 1074.5 515.837 1091.14 531.212 1085.82C606.386 1059.75 672.476 1023.58 706.319 967.489C710.912 959.889 714.905 951.225 711.711 943.169C704.922 925.765 673.374 924.397 649.914 927.741C537.302 943.777 431.478 986.793 351.212 1049.04C289.915 1096.61 240.397 1156.73 161.03 1184.92C110.714 1202.79 53.9086 1205.75 -0.700256 1213.58C-95.4421 1227.18 -186.091 1256.67 -264.56 1299.23C-273.245 1303.94 -282.33 1309.41 -285.625 1317.16C-289.818 1327.2 -282.929 1337.84 -275.741 1346.88C-212.746 1426.99 -112.713 1489.76 2.59427 1521.53C70.8803 1540.38 153.143 1546.91 211.046 1513.55C255.073 1488.17 278.434 1443.17 329.349 1426.76C367.984 1414.29 413.209 1421.74 453.342 1412.39C500.064 1401.45 538.699 1368.62 580.829 1352.66C596.203 1346.8 593.308 1329.55 576.436 1326.89C566.952 1325.37 558.466 1322.79 552.776 1317.47C531.911 1298.09 569.348 1274 599.098 1263.36C669.98 1237.9 732.775 1199.44 780.595 1152.09C826.619 1106.49 858.665 1053.29 907.284 1009.29C955.903 965.285 1029.08 930.097 1103.46 940.053C1134.2 944.157 1167.65 962.473 1161.96 985.805C1159.26 996.825 1148.48 1005.57 1137.8 1013.32C1030.78 1091.45 893.107 1145.71 804.655 1236.22C751.644 1290.49 718.399 1355.92 656.603 1404.56C607.185 1443.48 540.696 1469.62 470.413 1477.75C407.618 1485.05 339.931 1478.82 283.625 1501.24C237.203 1519.7 207.253 1554.06 181.995 1589.62C175.406 1598.9 184.391 1610.07 198.168 1609.92H198.567C206.155 1609.84 212.843 1606.12 215.339 1600.64C228.817 1571.39 254.174 1540.15 292.51 1545.16C322.56 1549.12 338.034 1573.67 356.503 1592.13C357.701 1593.27 358.899 1594.41 360.197 1595.55C375.971 1608.93 402.626 1591.53 388.051 1577.31C376.47 1566.06 370.88 1553.3 378.766 1540.38C390.547 1521.15 423.991 1518.18 451.645 1515.3C603.591 1499.41 724.09 1407.15 800.063 1305.69C833.208 1261.46 861.46 1213.43 910.978 1179.15C964.488 1142.14 1036.87 1125.34 1095.27 1092.97C1132.91 1072.07 1164.35 1044.63 1186.52 1013.39C1200.09 994.317 1210.18 971.213 1199.1 951.225C1183.92 924.093 1139.5 916.645 1102.76 907.373C1015.9 885.485 943.124 833.349 909.181 768.673C897.7 746.861 903.69 710.989 934.339 713.877C958.998 716.233 962.791 741.465 968.781 759.857C987.75 818.149 1077.9 840.189 1144.29 872.565C1217.07 907.981 1272.47 974.329 1251.61 1038.09C1235.14 1088.56 1176.53 1124.43 1116.53 1149.28C1090.08 1160.23 1062.52 1169.95 1035.57 1180.29C1018.3 1186.9 1029.68 1206.81 1047.75 1201.65C1106.85 1184.85 1163.66 1163.34 1216.87 1137.42C1240.63 1125.87 1264.19 1113.03 1279.86 1095.24C1310.51 1060.66 1305.42 1014.31 1288.35 974.709C1253.41 893.997 1171.64 825.749 1069.21 791.929C1047.45 784.785 1019.9 771.789 1027.58 754.689C1036.07 735.765 1073.21 741.997 1095.87 752.181C1158.46 780.225 1219.06 810.853 1277.37 843.837C1315.1 865.193 1353.44 889.361 1369.41 922.953C1391.78 970.149 1365.42 1027.3 1399.66 1070.24C1405.65 1077.77 1413.94 1084.76 1425.02 1087.27C1447.28 1092.28 1468.35 1077.23 1480.53 1062.26C1536.93 992.949 1521.26 903.041 1557.7 826.357C1562.59 816.021 1568.68 805.685 1579.06 798.085C1609.51 775.817 1660.13 786.229 1696.57 802.417C1733.01 818.605 1770.54 840.189 1812.47 836.085C1844.42 832.969 1870.08 815.489 1898.43 803.785C1926.78 792.081 1966.72 787.597 1987.38 806.445C2000.06 817.997 2000.76 834.565 1999.36 849.613C1990.58 947.349 1918.8 1040.68 1811.18 1094.41C1729.91 1134.99 1631.18 1153.46 1554.5 1198.98C1512.17 1224.07 1477.53 1256.82 1430.81 1276.89C1327.88 1321.12 1185.12 1295.96 1095.37 1354.56C1079.7 1364.82 1065.62 1381.46 1075.1 1395.52C1081.19 1404.41 1094.57 1408.67 1106.95 1412.01C1172.74 1429.87 1240.53 1443.4 1309.41 1452.44C1331.28 1455.33 1354.04 1457.77 1375.4 1453.05C1398.76 1447.96 1417.63 1435.04 1435.4 1422.5C1557.2 1336.77 1676.7 1249.07 1793.6 1159.47C1903.32 1075.41 2016.53 981.169 2036.7 863.597C2042.59 829.777 2031.41 787.445 1998.26 768.901ZM812.542 583.917C810.545 585.741 804.356 588.021 800.662 588.933C781.194 594.025 761.128 596.837 740.463 597.293C734.772 597.445 727.584 597.141 723.091 594.633C715.903 590.757 719.497 585.057 725.388 581.637C740.263 573.125 768.915 571.301 786.585 572.213C791.976 572.593 822.725 574.569 812.542 583.917ZM1639.76 1226.57C1628.88 1269.59 1591.74 1295.66 1544.22 1316.78C1504.79 1334.26 1478.03 1346.5 1446.98 1363.83C1412.54 1383.06 1379.4 1406.09 1334.87 1409.96V1409.88C1304.62 1410.64 1281.76 1410.87 1266.38 1410.64C1241.93 1410.26 1137.1 1404.95 1131.51 1380.85C1127.92 1365.12 1160.96 1356.08 1175.34 1352.5C1196.6 1347.18 1217.67 1341.41 1238.43 1335.18C1269.98 1325.68 1301.03 1324.16 1334.87 1326.36C1346.05 1326.82 1356.23 1326.89 1365.52 1326.74C1415.24 1325.83 1461.66 1309.34 1496.4 1282.36C1501.49 1278.4 1507.98 1272.55 1515.97 1264.72C1521.66 1259.1 1534.44 1246.33 1554.1 1226.5C1564.19 1216.24 1577.76 1206.43 1593.14 1201.49C1603.12 1198.3 1619.59 1195.41 1629.78 1199.67C1641.36 1204.61 1642.06 1217.68 1639.76 1226.57Z" fill="white"/>
<path d="M800.262 -143.099C791.677 -147.887 781.594 -151.079 770.013 -152.219C720.795 -156.779 683.657 -118.855 636.835 -106.467C574.739 -90.051 516.237 -120.147 455.139 -144.619C405.621 -164.531 344.523 -146.291 325.555 -106.163C295.006 -41.639 275.838 26.0009 268.75 94.4009C267.452 106.561 263.558 121.609 247.984 124.497C226.321 128.525 215.738 105.193 215.139 88.1689C212.444 10.0409 221.429 -118.703 212.244 -164.607C210.347 -174.107 197.868 -180.187 185.688 -177.451C170.414 -174.031 160.431 -162.859 161.828 -150.775C163.925 -132.611 172.311 -110.799 172.311 -110.799C173.609 -97.651 152.344 -90.659 140.664 -100.463C117.702 -119.843 101.329 -144.847 82.361 -167.039C-23.762 -291.147 -227.322 -339.939 -414.609 -379.915C-431.481 -383.487 -449.351 -387.135 -466.223 -383.487C-499.767 -376.191 -511.847 -345.563 -518.736 -319.571C-520.233 -313.947 -521.631 -308.171 -520.033 -302.547C-513.145 -279.747 -469.717 -283.015 -440.167 -289.551C-257.671 -329.907 -47.4225 -266.067 57.702 -147.127C67.1862 -136.335 49.6156 -123.719 36.0382 -131.547C-108.321 -214.995 -302.397 -248.131 -479.202 -216.363C-548.386 -203.975 -618.17 -182.163 -688.053 -192.043C-700.133 -193.715 -712.113 -196.375 -723.993 -199.339C-747.054 -205.039 -759.234 -179.199 -736.572 -172.587C-684.559 -157.387 -626.655 -153.815 -572.446 -163.847C-501.664 -176.919 -423.495 -210.359 -362.596 -179.883C-293.811 -145.531 -302.596 -50.987 -225.126 -29.859C-203.961 -24.083 -173.213 -19.675 -174.51 -2.57501C-175.609 10.725 -196.773 16.1209 -213.345 20.1489C-360.6 56.0969 -390.849 210.149 -515.84 279.537C-556.672 302.185 -605.99 314.649 -646.822 337.221C-672.679 351.433 -695.341 371.649 -704.925 395.209C-713.71 416.793 -696.139 438.149 -721.597 453.349C-766.821 480.405 -833.81 468.245 -883.327 488.841C-935.141 510.425 -954.708 562.105 -1005.52 584.829C-1052.64 605.957 -1112.64 596.381 -1164.56 583.233C-1259.9 559.141 -1357.34 520.381 -1401.86 451.829C-1412.84 434.881 -1417.54 410.409 -1396.27 400.605C-1384.89 395.361 -1370.41 396.881 -1357.14 396.121C-1299.03 392.701 -1262.69 344.897 -1207.59 330.609C-1156.57 317.309 -1098.67 334.941 -1047.25 322.553C-996.338 310.241 -965.39 272.393 -933.543 239.713C-845.39 149.577 -718.203 82.0129 -576.639 50.093C-568.253 48.1929 -559.168 46.4449 -550.982 48.7249C-536.606 52.753 -532.413 67.8009 -538.602 78.4409C-544.792 89.0809 -557.97 96.2249 -570.649 102.761C-606.289 121.153 -642.529 138.937 -679.367 155.885C-693.743 162.573 -682.263 179.217 -666.888 173.897C-591.714 147.829 -525.624 111.653 -491.781 55.5649C-487.188 47.965 -483.195 39.301 -486.39 31.245C-493.178 13.8409 -524.726 12.473 -548.186 15.817C-660.798 31.853 -766.622 74.869 -846.888 137.113C-908.185 184.689 -957.703 244.805 -1037.07 273.001C-1087.39 290.861 -1144.19 293.825 -1198.8 301.653C-1293.54 315.257 -1384.19 344.745 -1462.66 387.305C-1471.35 392.017 -1480.43 397.489 -1483.72 405.241C-1487.92 415.273 -1481.03 425.913 -1473.84 434.957C-1410.85 515.061 -1310.81 577.837 -1195.51 609.605C-1127.22 628.453 -1044.96 634.989 -987.054 601.625C-943.027 576.241 -919.666 531.249 -868.751 514.833C-830.116 502.369 -784.891 509.817 -744.758 500.469C-698.036 489.525 -659.401 456.693 -617.271 440.733C-601.897 434.881 -604.792 417.629 -621.664 414.969C-631.148 413.449 -639.634 410.865 -645.324 405.545C-666.189 386.165 -628.752 362.073 -599.002 351.433C-528.12 325.973 -465.325 287.517 -417.505 240.169C-371.481 194.569 -339.435 141.369 -290.816 97.365C-242.197 53.361 -169.019 18.1729 -94.6437 28.1289C-63.895 32.2329 -30.4508 50.5489 -36.1414 73.8809C-38.8368 84.9009 -49.6188 93.6409 -60.3009 101.393C-167.322 179.521 -304.992 233.785 -393.445 324.301C-446.456 378.565 -479.701 444.001 -541.498 492.641C-590.915 531.553 -657.404 557.697 -727.687 565.829C-790.482 573.125 -858.169 566.893 -914.475 589.313C-960.897 607.781 -990.847 642.133 -1016.11 677.701C-1022.69 686.973 -1013.71 698.145 -999.932 697.993H-999.533C-991.946 697.917 -985.257 694.193 -982.761 688.721C-969.283 659.461 -943.926 628.225 -905.59 633.241C-875.54 637.193 -860.066 661.741 -841.597 680.209C-840.399 681.349 -839.201 682.489 -837.903 683.629C-822.129 697.005 -795.474 679.601 -810.049 665.389C-821.63 654.141 -827.221 641.373 -819.334 628.453C-807.553 609.225 -774.109 606.261 -746.455 603.373C-594.509 587.489 -474.01 495.225 -398.037 393.765C-364.892 349.533 -336.64 301.501 -287.122 267.225C-233.612 230.213 -161.232 213.417 -102.83 181.041C-65.1927 160.141 -33.7452 132.705 -11.5823 101.469C1.99512 82.3929 12.0782 59.2889 0.996704 39.3009C-14.178 12.1689 -58.6038 4.72098 -95.3424 -4.55103C-182.197 -26.439 -254.976 -78.575 -288.919 -143.251C-300.4 -165.063 -294.41 -200.935 -263.761 -198.047C-239.103 -195.691 -235.309 -170.459 -229.319 -152.067C-210.35 -93.775 -120.201 -71.735 -53.8118 -39.359C18.9667 -3.94305 74.3743 62.4049 53.509 126.169C37.0365 176.633 -21.5657 212.505 -81.5656 237.357C-108.021 248.301 -135.575 258.029 -162.53 268.365C-179.802 274.977 -168.42 294.889 -150.351 289.721C-91.2493 272.925 -34.4442 251.417 18.767 225.501C42.5273 213.949 66.0881 201.105 81.762 183.321C112.411 148.741 107.319 102.381 90.2478 62.7849C55.3062 -17.927 -26.4574 -86.175 -128.886 -119.995C-150.65 -127.139 -178.204 -140.135 -170.517 -157.235C-162.031 -176.159 -124.893 -169.927 -102.231 -159.743C-39.6355 -131.699 20.9634 -101.071 79.2661 -68.087C117.003 -46.731 155.339 -22.5631 171.312 11.0289C193.675 58.2249 167.319 115.377 201.562 158.317C207.552 165.841 215.838 172.833 226.92 175.341C249.182 180.357 270.247 165.309 282.427 150.337C338.833 81.025 323.159 -8.88303 359.598 -85.567C364.49 -95.903 370.58 -106.239 380.962 -113.839C411.411 -136.107 462.027 -125.695 498.466 -109.507C534.905 -93.319 572.443 -71.735 614.373 -75.8391C646.319 -78.955 671.976 -96.435 700.329 -108.139C728.682 -119.843 768.615 -124.327 789.281 -105.479C801.959 -93.927 802.658 -77.359 801.26 -62.311C792.475 35.425 720.695 128.753 613.075 182.485C531.81 223.069 433.075 241.537 356.403 287.061C314.074 312.141 279.432 344.897 232.71 364.961C129.782 409.193 -12.98 384.037 -102.73 442.633C-118.404 452.893 -132.48 469.537 -122.996 483.597C-116.906 492.489 -103.529 496.745 -91.1494 500.089C-25.3593 517.949 42.4276 531.477 111.313 540.521C133.176 543.409 155.938 545.841 177.203 541.129C200.564 536.037 219.432 523.117 237.202 510.577C358.999 424.849 478.5 337.145 595.404 247.541C705.521 163.713 818.632 69.473 838.798 -48.099C844.588 -82.2231 833.407 -124.555 800.262 -143.099ZM-385.458 -328.083C-387.455 -326.259 -393.644 -323.979 -397.338 -323.067C-416.806 -317.975 -436.872 -315.163 -457.538 -314.707C-463.228 -314.555 -470.416 -314.859 -474.909 -317.367C-482.097 -321.243 -478.503 -326.943 -472.613 -330.363C-457.737 -338.875 -429.085 -340.699 -411.415 -339.787C-406.024 -339.407 -375.275 -337.431 -385.458 -328.083ZM441.761 314.573C430.879 357.589 393.741 383.657 346.22 404.785C306.786 422.265 280.031 434.501 248.983 451.829C214.54 471.057 181.396 494.085 136.87 497.961V497.885C106.62 498.645 83.7585 498.873 68.3843 498.645C43.925 498.265 -60.8999 492.945 -66.4906 468.853C-70.0846 453.121 -37.0398 444.077 -22.6638 440.505C-1.39929 435.185 19.6655 429.409 40.4309 423.177C71.9783 413.677 103.026 412.157 136.87 414.361C148.051 414.817 158.234 414.893 167.519 414.741C217.236 413.829 263.658 397.337 298.4 370.357C303.492 366.405 309.981 360.553 317.968 352.725C323.658 347.101 336.437 334.333 356.104 314.497C366.187 304.237 379.764 294.433 395.139 289.493C405.122 286.301 421.595 283.413 431.778 287.669C443.358 292.609 444.057 305.681 441.761 314.573Z" fill="white"/>
<path d="M3196.26 -143.099C3187.68 -147.887 3177.59 -151.079 3166.01 -152.219C3116.8 -156.779 3079.66 -118.855 3032.84 -106.467C2970.74 -90.051 2912.24 -120.147 2851.14 -144.619C2801.62 -164.531 2740.52 -146.291 2721.55 -106.163C2691.01 -41.639 2671.84 26.0009 2664.75 94.4009C2663.45 106.561 2659.56 121.609 2643.98 124.497C2622.32 128.525 2611.74 105.193 2611.14 88.1689C2607.84 -7.21106 2604.55 -102.591 2601.26 -197.971C2600.96 -206.559 2591.57 -213.399 2580.29 -213.323C2568.41 -213.171 2559.03 -205.419 2559.92 -196.375L2568.31 -110.723C2569.61 -97.575 2548.34 -90.583 2536.66 -100.387C2513.7 -119.767 2497.33 -144.771 2478.36 -166.963C2372.24 -291.147 2168.68 -339.939 1981.39 -379.915C1964.52 -383.487 1946.65 -387.135 1929.78 -383.487C1896.23 -376.191 1884.15 -345.563 1877.26 -319.571C1875.77 -313.947 1874.37 -308.171 1875.97 -302.547C1882.86 -279.747 1926.28 -283.015 1955.83 -289.551C2138.33 -329.907 2348.58 -266.067 2453.7 -147.127C2463.19 -136.335 2445.62 -123.719 2432.04 -131.547C2287.68 -214.995 2093.6 -248.131 1916.8 -216.363C1847.61 -203.975 1777.83 -182.163 1707.95 -192.043C1695.87 -193.715 1683.89 -196.375 1672.01 -199.339C1648.95 -205.039 1636.77 -179.199 1659.43 -172.587C1711.44 -157.387 1769.34 -153.815 1823.55 -163.847C1894.34 -176.919 1972.51 -210.359 2033.4 -179.883C2102.19 -145.531 2093.4 -50.987 2170.87 -29.859C2192.04 -24.083 2222.79 -19.675 2221.49 -2.57501C2220.39 10.725 2199.23 16.1209 2182.65 20.1489C2035.4 56.0969 2005.15 210.149 1880.16 279.537C1839.33 302.185 1790.01 314.649 1749.18 337.221C1723.32 351.433 1700.66 371.649 1691.08 395.209C1682.29 416.793 1699.86 438.149 1674.4 453.349C1629.18 480.405 1562.19 468.245 1512.67 488.841C1460.86 510.425 1441.29 562.105 1390.48 584.829C1343.36 605.957 1283.36 596.381 1231.44 583.233C1136.1 559.141 1038.66 520.381 994.139 451.829C983.157 434.881 978.465 410.409 999.729 400.605C1011.11 395.361 1025.59 396.881 1038.86 396.121C1096.97 392.701 1133.31 344.897 1188.41 330.609C1239.43 317.309 1297.33 334.941 1348.75 322.553C1399.66 310.241 1430.61 272.393 1462.46 239.713C1550.61 149.577 1677.8 82.0129 1819.36 50.093C1827.75 48.1929 1836.83 46.4449 1845.02 48.7249C1859.39 52.753 1863.59 67.8009 1857.4 78.4409C1851.21 89.0809 1838.03 96.2249 1825.35 102.761C1789.71 121.153 1753.47 138.937 1716.63 155.885C1702.26 162.573 1713.74 179.217 1729.11 173.897C1804.29 147.829 1870.38 111.653 1904.22 55.5649C1908.81 47.965 1912.8 39.301 1909.61 31.245C1902.82 13.8409 1871.27 12.473 1847.81 15.817C1735.2 31.853 1629.38 74.869 1549.11 137.113C1487.81 184.689 1438.3 244.805 1358.93 273.001C1308.61 290.861 1251.81 293.825 1197.2 301.653C1102.46 315.257 1011.81 344.745 933.34 387.305C924.655 392.017 915.57 397.489 912.275 405.241C908.082 415.273 914.971 425.913 922.159 434.957C985.154 515.061 1085.19 577.837 1200.49 609.605C1268.78 628.453 1351.04 634.989 1408.95 601.625C1452.97 576.241 1476.33 531.249 1527.25 514.833C1565.88 502.369 1611.11 509.817 1651.24 500.469C1697.96 489.525 1736.6 456.693 1778.73 440.733C1794.1 434.881 1791.21 417.629 1774.34 414.969C1764.85 413.449 1756.37 410.865 1750.68 405.545C1729.81 386.165 1767.25 362.073 1797 351.433C1867.88 325.973 1930.68 287.517 1978.5 240.169C2024.52 194.569 2056.57 141.369 2105.18 97.365C2153.8 53.361 2226.98 18.1729 2301.36 28.1289C2332.11 32.2329 2365.55 50.5489 2359.86 73.8809C2357.16 84.9009 2346.38 93.6409 2335.7 101.393C2228.68 179.521 2091.01 233.785 2002.56 324.301C1949.54 378.565 1916.3 444.001 1854.5 492.641C1805.08 531.553 1738.6 557.697 1668.31 565.829C1605.52 573.125 1537.83 566.893 1481.52 589.313C1435.1 607.781 1405.15 642.133 1379.89 677.701C1373.31 686.973 1382.29 698.145 1396.07 697.993H1396.47C1404.05 697.917 1410.74 694.193 1413.24 688.721C1426.72 659.461 1452.07 628.225 1490.41 633.241C1520.46 637.193 1535.93 661.741 1554.4 680.209C1555.6 681.349 1556.8 682.489 1558.1 683.629C1573.87 697.005 1600.53 679.601 1585.95 665.389C1574.37 654.141 1568.78 641.373 1576.67 628.453C1588.45 609.225 1621.89 606.261 1649.54 603.373C1801.49 587.489 1921.99 495.225 1997.96 393.765C2031.11 349.533 2059.36 301.501 2108.88 267.225C2162.39 230.213 2234.77 213.417 2293.17 181.041C2330.81 160.141 2362.25 132.705 2384.42 101.469C2398 82.3929 2408.08 59.2889 2397 39.3009C2381.82 12.1689 2337.4 4.72098 2300.66 -4.55103C2213.8 -26.439 2141.02 -78.575 2107.08 -143.251C2095.6 -165.063 2101.59 -200.935 2132.24 -198.047C2156.9 -195.691 2160.69 -170.459 2166.68 -152.067C2185.65 -93.775 2275.8 -71.735 2342.19 -39.359C2414.97 -3.94305 2470.37 62.4049 2449.51 126.169C2433.04 176.633 2374.43 212.505 2314.43 237.357C2287.98 248.301 2260.42 258.029 2233.47 268.365C2216.2 274.977 2227.58 294.889 2245.65 289.721C2304.75 272.925 2361.56 251.417 2414.77 225.501C2438.53 213.949 2462.09 201.105 2477.76 183.321C2508.41 148.741 2503.32 102.381 2486.25 62.7849C2451.31 -17.927 2369.54 -86.175 2267.11 -119.995C2245.35 -127.139 2217.8 -140.135 2225.48 -157.235C2233.97 -176.159 2271.11 -169.927 2293.77 -159.743C2356.36 -131.699 2416.96 -101.071 2475.27 -68.087C2513 -46.731 2551.34 -22.5631 2567.31 11.0289C2589.68 58.2249 2563.32 115.377 2597.56 158.317C2603.55 165.841 2611.84 172.833 2622.92 175.341C2645.18 180.357 2666.25 165.309 2678.43 150.337C2734.83 81.025 2719.16 -8.88303 2755.6 -85.567C2760.49 -95.903 2766.58 -106.239 2776.96 -113.839C2807.41 -136.107 2858.03 -125.695 2894.47 -109.507C2930.91 -93.319 2968.44 -71.735 3010.37 -75.8391C3042.32 -78.955 3067.98 -96.435 3096.33 -108.139C3124.68 -119.843 3164.62 -124.327 3185.28 -105.479C3197.96 -93.927 3198.66 -77.359 3197.26 -62.311C3188.48 35.425 3116.7 128.753 3009.07 182.485C2927.81 223.069 2829.08 241.537 2752.4 287.061C2710.07 312.141 2675.43 344.897 2628.71 364.961C2525.78 409.193 2383.02 384.037 2293.27 442.633C2277.6 452.893 2263.52 469.537 2273 483.597C2279.09 492.489 2292.47 496.745 2304.85 500.089C2370.64 517.949 2438.43 531.477 2507.31 540.521C2529.18 543.409 2551.94 545.841 2573.3 541.129C2596.66 536.037 2615.53 523.117 2633.3 510.577C2755.1 424.849 2874.6 337.145 2991.5 247.541C3101.52 163.713 3214.63 69.473 3234.8 -48.099C3240.59 -82.2231 3229.41 -124.555 3196.26 -143.099ZM2010.54 -328.083C2008.55 -326.259 2002.36 -323.979 1998.66 -323.067C1979.19 -317.975 1959.13 -315.163 1938.46 -314.707C1932.77 -314.555 1925.58 -314.859 1921.09 -317.367C1913.9 -321.243 1917.5 -326.943 1923.39 -330.363C1938.26 -338.875 1966.91 -340.699 1984.59 -339.787C1989.98 -339.407 2020.72 -337.431 2010.54 -328.083ZM2837.76 314.573C2826.88 357.589 2789.74 383.657 2742.22 404.785C2702.79 422.265 2676.03 434.501 2644.98 451.829C2610.54 471.057 2577.4 494.085 2532.87 497.961V497.885C2502.62 498.645 2479.76 498.873 2464.38 498.645C2439.92 498.265 2335.1 492.945 2329.51 468.853C2325.92 453.121 2358.96 444.077 2373.34 440.505C2394.6 435.185 2415.67 429.409 2436.43 423.177C2467.98 413.677 2499.03 412.157 2532.87 414.361C2544.05 414.817 2554.23 414.893 2563.52 414.741C2613.24 413.829 2659.66 397.337 2694.4 370.357C2699.49 366.405 2705.98 360.553 2713.97 352.725C2719.66 347.101 2732.44 334.333 2752.1 314.497C2762.19 304.237 2775.76 294.433 2791.14 289.493C2801.12 286.301 2817.59 283.413 2827.78 287.669C2839.36 292.609 2840.06 305.681 2837.76 314.573Z" fill="white"/>
<path d="M379.665 3.42904C383.059 4.26504 384.557 11.713 384.656 13.993C385.655 25.849 382.859 39.1491 374.174 49.257C365.788 58.9851 362.094 46.8251 362.094 42.417C362.094 31.4731 364.69 20.909 369.881 10.725C371.478 7.76104 375.072 2.21304 379.665 3.42904Z" fill="white"/>
<path d="M876.635 27.293C877.334 27.293 877.933 27.749 878.033 28.281C878.232 35.881 857.966 52.069 847.883 51.537C847.484 51.537 847.184 51.385 846.985 51.081C842.692 44.165 867.65 27.293 876.635 27.293Z" fill="white"/>
<path d="M1049.65 93.261C1042.46 89.537 1063.72 81.101 1067.02 79.809C1075.3 76.617 1083.99 74.565 1093.27 73.577C1096.87 73.197 1106.25 74.109 1103.56 78.669C1097.17 89.689 1067.62 94.173 1053.64 94.173C1052.44 94.097 1050.44 93.717 1049.65 93.261Z" fill="white"/>
<path d="M913.773 170.477C905.287 177.013 898.299 173.897 901.394 164.777C903.79 157.481 908.183 150.945 914.272 145.017C917.168 142.205 927.65 134.149 932.841 137.645C935.936 139.773 934.439 144.485 933.241 147.069C929.148 155.733 922.758 163.561 913.773 170.477Z" fill="white"/>
<path d="M612.276 652.469C594.306 654.141 576.336 655.813 558.366 657.561C548.383 658.473 538.2 659.461 529.015 662.501C527.318 663.033 525.621 663.717 524.323 664.705C520.33 667.897 524.223 670.785 528.416 671.849C533.009 672.989 537.801 673.369 542.593 673.597C551.777 674.053 560.962 673.825 570.147 673.065C584.523 671.773 598.998 668.885 610.978 662.729C614.173 661.057 617.268 659.157 618.965 656.497C619.364 655.965 619.664 655.357 619.564 654.673C619.464 653.609 618.166 652.773 616.769 652.469C615.371 652.165 613.974 652.317 612.576 652.469C612.476 652.393 612.376 652.393 612.276 652.469Z" fill="white"/>
<path d="M659.497 365.189C658 365.037 657.201 363.821 657.7 362.833C660.096 358.197 675.97 351.965 681.96 349.837C692.841 345.885 733.374 332.661 743.557 337.601C743.856 337.753 744.156 338.057 744.256 338.285C746.152 344.973 730.179 352.269 723.89 354.245C707.916 359.337 691.244 362.833 674.073 364.657C667.484 365.417 664.489 365.797 659.497 365.189Z" fill="white"/>
<path d="M886.718 512.553C878.232 506.321 815.537 457.149 827.417 449.169C831.71 446.281 841.693 452.893 845.088 455.325C859.763 466.041 879.929 481.241 905.587 500.849C910.478 504.573 948.415 533.453 936.635 536.797C925.853 539.837 895.304 518.861 886.718 512.553Z" fill="white"/>
<path d="M1998.26 -143.099C1989.68 -147.887 1979.59 -151.079 1968.01 -152.219C1918.8 -156.779 1881.66 -118.855 1834.84 -106.467C1772.74 -90.051 1714.24 -120.147 1653.14 -144.619C1603.62 -164.531 1542.52 -146.291 1523.55 -106.163C1493.01 -41.639 1473.84 26.0009 1466.75 94.4009C1465.45 106.561 1461.56 121.609 1445.98 124.497C1424.32 128.525 1413.74 105.193 1413.14 88.1689C1409.84 -7.21106 1406.55 -102.591 1403.26 -197.971C1402.96 -206.559 1393.57 -213.399 1382.29 -213.323C1370.41 -213.171 1361.03 -205.419 1361.92 -196.375L1370.31 -110.723C1371.61 -97.575 1350.34 -90.583 1338.66 -100.387C1315.7 -119.767 1299.33 -144.771 1280.36 -166.963C1174.24 -291.147 970.678 -339.939 783.391 -379.915C766.519 -383.487 748.649 -387.135 731.777 -383.487C698.233 -376.191 686.153 -345.563 679.265 -319.571C677.767 -313.947 676.369 -308.171 677.967 -302.547C684.855 -279.747 728.283 -283.015 757.833 -289.551C940.329 -329.907 1150.58 -266.067 1255.7 -147.127C1265.19 -136.335 1247.62 -123.719 1234.04 -131.547C1089.68 -214.995 895.603 -248.131 718.798 -216.363C649.614 -203.975 579.83 -182.163 509.947 -192.043C497.867 -193.715 485.887 -196.375 474.007 -199.339C450.946 -205.039 438.766 -179.199 461.428 -172.587C513.441 -157.387 571.345 -153.815 625.554 -163.847C696.336 -176.919 774.505 -210.359 835.404 -179.883C904.189 -145.531 895.403 -50.987 972.874 -29.859C994.039 -24.083 1024.79 -19.675 1023.49 -2.57501C1022.39 10.725 1001.23 16.1209 984.655 20.1489C837.4 56.0969 807.151 210.149 682.16 279.537C641.328 302.185 592.01 314.649 551.178 337.221C525.321 351.433 502.659 371.649 493.075 395.209C484.29 416.793 501.861 438.149 476.403 453.349C431.179 480.405 364.19 468.245 314.673 488.841C262.86 510.425 243.292 562.105 192.477 584.829C145.356 605.957 85.3559 596.381 33.4426 583.233C-61.8982 559.141 -159.336 520.381 -203.861 451.829C-214.843 434.881 -219.535 410.409 -198.271 400.605C-186.89 395.361 -172.414 396.881 -159.136 396.121C-101.033 392.701 -64.6935 344.897 -9.58554 330.609C41.4293 317.309 99.3326 334.941 150.747 322.553C201.662 310.241 232.61 272.393 264.457 239.713C352.61 149.577 479.797 82.0129 621.361 50.093C629.747 48.1929 638.832 46.4449 647.018 48.7249C661.394 52.753 665.587 67.8009 659.398 78.4409C653.208 89.0809 640.03 96.2249 627.351 102.761C591.711 121.153 555.471 138.937 518.633 155.885C504.257 162.573 515.737 179.217 531.112 173.897C606.286 147.829 672.376 111.653 706.219 55.5649C710.812 47.965 714.805 39.301 711.61 31.245C704.822 13.8409 673.274 12.473 649.814 15.817C537.202 31.853 431.378 74.869 351.112 137.113C289.815 184.689 240.297 244.805 160.93 273.001C110.614 290.861 53.8086 293.825 -0.800262 301.653C-95.5421 315.257 -186.191 344.745 -264.66 387.305C-273.345 392.017 -282.43 397.489 -285.725 405.241C-289.918 415.273 -283.029 425.913 -275.841 434.957C-212.846 515.061 -112.813 577.837 2.49426 609.605C70.7803 628.453 153.043 634.989 210.946 601.625C254.973 576.241 278.334 531.249 329.249 514.833C367.884 502.369 413.109 509.817 453.242 500.469C499.964 489.525 538.599 456.693 580.729 440.733C596.103 434.881 593.208 417.629 576.336 414.969C566.852 413.449 558.366 410.865 552.676 405.545C531.811 386.165 569.248 362.073 598.998 351.433C669.88 325.973 732.675 287.517 780.495 240.169C826.519 194.569 858.565 141.369 907.184 97.365C955.803 53.361 1028.98 18.1729 1103.36 28.1289C1134.11 32.2329 1167.55 50.5489 1161.86 73.8809C1159.16 84.9009 1148.38 93.6409 1137.7 101.393C1030.68 179.521 893.008 233.785 804.555 324.301C751.544 378.565 718.299 444.001 656.502 492.641C607.085 531.553 540.596 557.697 470.313 565.829C407.518 573.125 339.831 566.893 283.525 589.313C237.103 607.781 207.153 642.133 181.895 677.701C175.306 686.973 184.291 698.145 198.068 697.993H198.467C206.054 697.917 212.743 694.193 215.239 688.721C228.717 659.461 254.074 628.225 292.41 633.241C322.46 637.193 337.934 661.741 356.403 680.209C357.602 681.349 358.799 682.489 360.097 683.629C375.871 697.005 402.526 679.601 387.951 665.389C376.37 654.141 370.779 641.373 378.666 628.453C390.447 609.225 423.891 606.261 451.545 603.373C603.491 587.489 723.99 495.225 799.963 393.765C833.108 349.533 861.36 301.501 910.878 267.225C964.388 230.213 1036.77 213.417 1095.17 181.041C1132.81 160.141 1164.25 132.705 1186.42 101.469C1200 82.3929 1210.08 59.2889 1199 39.3009C1183.82 12.1689 1139.4 4.72098 1102.66 -4.55103C1015.8 -26.439 943.024 -78.575 909.081 -143.251C897.6 -165.063 903.59 -200.935 934.239 -198.047C958.897 -195.691 962.691 -170.459 968.681 -152.067C987.65 -93.775 1077.8 -71.735 1144.19 -39.359C1216.97 -3.94305 1272.37 62.4049 1251.51 126.169C1235.04 176.633 1176.43 212.505 1116.43 237.357C1089.98 248.301 1062.42 258.029 1035.47 268.365C1018.2 274.977 1029.58 294.889 1047.65 289.721C1106.75 272.925 1163.56 251.417 1216.77 225.501C1240.53 213.949 1264.09 201.105 1279.76 183.321C1310.41 148.741 1305.32 102.381 1288.25 62.7849C1253.31 -17.927 1171.54 -86.175 1069.11 -119.995C1047.35 -127.139 1019.8 -140.135 1027.48 -157.235C1035.97 -176.159 1073.11 -169.927 1095.77 -159.743C1158.36 -131.699 1218.96 -101.071 1277.27 -68.087C1315 -46.731 1353.34 -22.5631 1369.31 11.0289C1391.68 58.2249 1365.32 115.377 1399.56 158.317C1405.55 165.841 1413.84 172.833 1424.92 175.341C1447.18 180.357 1468.25 165.309 1480.43 150.337C1536.83 81.025 1521.16 -8.88303 1557.6 -85.567C1562.49 -95.903 1568.58 -106.239 1578.96 -113.839C1609.41 -136.107 1660.03 -125.695 1696.47 -109.507C1732.91 -93.319 1770.44 -71.735 1812.37 -75.8391C1844.32 -78.955 1869.98 -96.435 1898.33 -108.139C1926.68 -119.843 1966.62 -124.327 1987.28 -105.479C1999.96 -93.927 2000.66 -77.359 1999.26 -62.311C1990.48 35.425 1918.7 128.753 1811.07 182.485C1729.81 223.069 1631.08 241.537 1554.4 287.061C1512.07 312.141 1477.43 344.897 1430.71 364.961C1327.78 409.193 1185.02 384.037 1095.27 442.633C1079.6 452.893 1065.52 469.537 1075 483.597C1081.09 492.489 1094.47 496.745 1106.85 500.089C1172.64 517.949 1240.43 531.477 1309.31 540.521C1331.18 543.409 1353.94 545.841 1375.3 541.129C1398.66 536.037 1417.53 523.117 1435.3 510.577C1557.1 424.849 1676.6 337.145 1793.5 247.541C1903.52 163.713 2016.63 69.473 2036.8 -48.099C2042.59 -82.2231 2031.41 -124.555 1998.26 -143.099ZM812.542 -328.083C810.545 -326.259 804.355 -323.979 800.662 -323.067C781.194 -317.975 761.128 -315.163 740.462 -314.707C734.772 -314.555 727.584 -314.859 723.091 -317.367C715.903 -321.243 719.497 -326.943 725.387 -330.363C740.263 -338.875 768.915 -340.699 786.585 -339.787C791.976 -339.407 822.725 -337.431 812.542 -328.083ZM1639.76 314.573C1628.88 357.589 1591.74 383.657 1544.22 404.785C1504.79 422.265 1478.03 434.501 1446.98 451.829C1412.54 471.057 1379.4 494.085 1334.87 497.961V497.885C1304.62 498.645 1281.76 498.873 1266.38 498.645C1241.92 498.265 1137.1 492.945 1131.51 468.853C1127.92 453.121 1160.96 444.077 1175.34 440.505C1196.6 435.185 1217.67 429.409 1238.43 423.177C1269.98 413.677 1301.03 412.157 1334.87 414.361C1346.05 414.817 1356.23 414.893 1365.52 414.741C1415.24 413.829 1461.66 397.337 1496.4 370.357C1501.49 366.405 1507.98 360.553 1515.97 352.725C1521.66 347.101 1534.44 334.333 1554.1 314.497C1564.19 304.237 1577.76 294.433 1593.14 289.493C1603.12 286.301 1619.59 283.413 1629.78 287.669C1641.36 292.609 1642.06 305.681 1639.76 314.573Z" fill="white"/>
<path d="M78.6672 682.337C71.4792 678.613 92.7437 670.177 96.0382 668.885C104.324 665.693 113.01 663.641 122.294 662.653C125.888 662.273 135.273 663.185 132.577 667.745C126.188 678.765 96.6372 683.249 82.6605 683.249C81.5623 683.249 79.5657 682.793 78.6672 682.337Z" fill="white"/>
<path d="M279.432 735.309C270.946 741.845 263.958 738.729 267.053 729.609C269.449 722.313 273.842 715.777 279.931 709.849C282.827 707.037 293.309 698.981 298.5 702.477C301.595 704.605 300.098 709.317 298.9 711.901C294.906 720.565 288.417 728.393 279.432 735.309Z" fill="white"/>
<path d="M180.198 233.937C162.228 235.609 144.258 237.281 126.288 239.029C116.304 239.941 106.121 240.929 96.9368 243.969C95.2396 244.501 93.5425 245.185 92.2447 246.173C88.2513 249.365 92.1448 252.253 96.3378 253.317C100.93 254.457 105.722 254.837 110.514 255.065C119.699 255.521 128.883 255.293 138.068 254.533C152.444 253.241 166.92 250.353 178.9 244.197C182.095 242.525 185.189 240.625 186.887 237.965C187.286 237.433 187.585 236.825 187.486 236.141C187.386 235.077 186.088 234.241 184.69 233.937C183.293 233.633 181.895 233.785 180.497 233.937C180.397 233.861 180.298 233.937 180.198 233.937Z" fill="white"/>
<path d="M401.528 202.169C402.227 202.169 402.826 202.625 402.926 203.157C403.126 210.757 382.86 226.945 372.776 226.413C372.377 226.413 372.078 226.261 371.878 225.957C367.485 219.041 392.543 202.169 401.528 202.169Z" fill="white"/>
</svg>
