<svg width="756" height="267" viewBox="0 0 756 267" fill="none" xmlns="http://www.w3.org/2000/svg">
<path d="M137.106 88.4496L125.33 88.3723L124.962 141.619L103.075 141.475L103.443 88.2286L95.5069 88.1765L95.6325 70.0009L103.568 70.053L103.582 68.0051C103.643 59.216 106.206 52.5766 111.272 48.0871C116.339 43.5123 123.736 41.2568 133.464 41.3207C135.085 41.3313 136.279 41.3818 137.047 41.4722L136.918 60.0318C132.739 59.7483 129.791 60.3263 128.074 61.7657C126.357 63.2052 125.486 65.8022 125.46 69.5567L125.456 70.1967L137.232 70.274L137.106 88.4496ZM169.322 82.3889C171.909 78.4805 175.13 75.4296 178.985 73.2362C182.841 70.9575 187.115 69.8335 191.809 69.8643L191.649 93.0317L185.633 92.9923C180.172 92.9564 176.067 94.1242 173.32 96.4955C170.574 98.7815 169.18 102.868 169.14 108.756L168.911 141.908L147.023 141.764L147.516 70.3415L169.404 70.4852L169.322 82.3889ZM234.276 143.361C227.279 143.315 220.975 141.78 215.363 138.756C209.837 135.733 205.472 131.438 202.268 125.87C199.149 120.303 197.615 113.807 197.667 106.384C197.717 99.0451 199.383 92.6132 202.664 87.0879C205.946 81.4774 210.413 77.1973 216.065 74.2476C221.718 71.298 228.042 69.8462 235.04 69.8921C242.037 69.938 248.341 71.4728 253.952 74.4963C259.563 77.5199 263.971 81.8583 267.175 87.5114C270.379 93.0793 271.956 99.5324 271.905 106.871C271.854 114.209 270.146 120.684 266.779 126.294C263.498 131.819 258.988 136.056 253.251 139.005C247.598 141.955 241.273 143.407 234.276 143.361ZM234.407 124.417C238.588 124.445 242.14 122.932 245.062 119.879C248.07 116.827 249.594 112.442 249.633 106.725C249.673 101.007 248.253 96.6034 245.373 93.5124C242.578 90.422 239.09 88.8631 234.909 88.8356C230.642 88.8076 227.09 90.3204 224.253 93.3738C221.417 96.3419 219.978 100.727 219.938 106.53C219.899 112.247 221.234 116.65 223.943 119.74C226.738 122.831 230.226 124.39 234.407 124.417ZM327.288 70.7537C335.65 70.8086 342.287 73.5829 347.199 79.0766C352.196 84.4855 354.662 91.9258 354.597 101.398L354.309 143.125L332.549 142.982L332.817 104.199C332.85 99.4202 331.638 95.7001 329.182 93.0386C326.726 90.3771 323.407 89.0326 319.226 89.0052C315.044 88.9777 311.707 90.2785 309.214 92.9075C306.721 95.5365 305.459 99.2403 305.425 104.019L305.158 142.802L283.27 142.658L283.763 71.236L305.651 71.3797L305.586 80.8514C307.826 77.7087 310.83 75.2537 314.597 73.4864C318.364 71.6338 322.595 70.7229 327.288 70.7537ZM409.454 124.926L409.325 143.486L398.19 143.413C390.254 143.361 384.08 141.4 379.67 137.531C375.26 133.577 373.085 127.205 373.146 118.416L373.342 90.0004L364.638 89.9433L364.764 71.7677L373.468 71.8249L373.588 54.4173L395.475 54.561L395.355 71.9685L409.691 72.0627L409.565 90.2382L395.229 90.1441L395.031 118.815C395.017 120.949 395.518 122.488 396.536 123.433C397.553 124.379 399.256 124.859 401.646 124.875L409.454 124.926ZM489.098 107.145C489.084 109.193 488.941 111.325 488.67 113.542L439.135 113.217C439.446 117.656 440.83 121.079 443.288 123.484C445.832 125.805 448.939 126.977 452.608 127.002C458.069 127.037 461.883 124.758 464.048 120.165L487.343 120.317C486.116 125.003 483.911 129.212 480.728 132.946C477.63 136.681 473.727 139.599 469.019 141.702C464.311 143.804 459.056 144.836 453.253 144.798C446.256 144.752 440.037 143.218 434.597 140.196C429.156 137.173 424.919 132.879 421.885 127.312C418.852 121.745 417.361 115.25 417.412 107.826C417.463 100.402 419.001 93.9269 422.026 88.4C425.136 82.8736 429.432 78.6351 434.914 75.6843C440.396 72.7336 446.678 71.2814 453.761 71.3279C460.673 71.3733 466.807 72.8643 472.162 75.8008C477.518 78.7374 481.671 82.9034 484.62 88.2989C487.655 93.6949 489.148 99.9769 489.098 107.145ZM466.739 101.238C466.764 97.4832 465.505 94.4882 462.961 92.2528C460.416 90.0174 457.224 88.8871 453.384 88.8618C449.714 88.8378 446.593 89.884 444.018 92.0004C441.528 94.1175 439.972 97.1366 439.347 101.058L466.739 101.238ZM544.408 72.179C552.771 72.2339 559.408 75.0082 564.319 80.5019C569.317 85.9108 571.783 93.3512 571.717 102.823L571.429 144.55L549.669 144.407L549.937 105.624C549.97 100.845 548.759 97.1255 546.302 94.4639C543.846 91.8024 540.527 90.4579 536.346 90.4305C532.165 90.403 528.828 91.7038 526.335 94.3329C523.842 96.9619 522.579 100.666 522.546 105.444L522.278 144.227L500.39 144.084L500.884 72.6613L522.771 72.805L522.706 82.2768C524.946 79.1341 527.95 76.6791 531.717 74.9118C535.485 73.0591 539.715 72.1482 544.408 72.179ZM582.534 108.782C582.585 101.444 583.995 95.0101 586.764 89.4814C589.618 83.9534 593.445 79.7118 598.244 76.7565C603.043 73.8013 608.386 72.343 614.274 72.3817C618.968 72.4125 623.227 73.4218 627.054 75.4096C630.965 77.398 634.019 80.0635 636.215 83.4059L636.444 50.2547L658.331 50.3984L657.677 145.116L635.789 144.972L635.86 134.733C633.789 138.133 630.826 140.844 626.972 142.867C623.203 144.89 618.801 145.885 613.767 145.852C607.879 145.813 602.556 144.285 597.798 141.267C593.041 138.164 589.273 133.83 586.496 128.265C583.804 122.615 582.483 116.121 582.534 108.782ZM636.036 109.261C636.074 103.8 634.568 99.4808 631.518 96.3034C628.553 93.1265 624.894 91.5238 620.542 91.4952C616.191 91.4667 612.468 93.0209 609.374 96.158C606.366 99.2103 604.843 103.467 604.806 108.928C604.768 114.39 606.231 118.751 609.195 122.013C612.246 125.191 615.947 126.794 620.298 126.822C624.65 126.851 628.331 125.296 631.339 122.159C634.433 119.022 635.998 114.723 636.036 109.261Z" fill="#111826"/>
<path d="M49.15 192.675C49.2009 185.337 50.6108 178.903 53.3799 173.374C56.2343 167.846 60.0611 163.605 64.8604 160.649C69.6597 157.694 75.0032 156.235 80.8911 156.274C85.5844 156.305 89.8441 157.314 93.6704 159.302C97.5821 161.29 100.636 163.955 102.831 167.298L103.061 134.147L124.949 134.29L124.292 229.007L102.404 228.864L102.475 218.624C100.404 222.024 97.4408 224.736 93.5867 226.759C89.8179 228.782 85.4163 229.777 80.3817 229.744C74.4938 229.706 69.171 228.178 64.4131 225.16C59.6558 222.057 55.8885 217.722 53.111 212.157C50.4194 206.508 49.0991 200.014 49.15 192.675ZM102.652 193.153C102.69 187.692 101.184 183.373 98.1337 180.195C95.169 177.018 91.5107 175.416 87.1587 175.387C82.8068 175.359 79.084 176.913 75.9902 180.05C72.9822 183.103 71.4594 187.36 71.4215 192.821C71.3836 198.282 72.8468 202.644 75.8109 205.906C78.8609 209.083 82.5619 210.686 86.9138 210.715C91.2657 210.743 94.9459 209.188 97.9544 206.051C101.048 202.913 102.614 198.614 102.652 193.153ZM207.709 192.688C207.694 194.736 207.552 196.869 207.28 199.086L157.745 198.762C158.056 203.201 159.44 206.623 161.898 209.029C164.442 211.35 167.549 212.522 171.218 212.546C176.679 212.582 180.493 210.303 182.658 205.709L205.953 205.861C204.726 210.546 202.521 214.756 199.338 218.49C196.24 222.224 192.337 225.143 187.629 227.246C182.921 229.348 177.665 230.381 171.863 230.343C164.866 230.297 158.647 228.763 153.206 225.74C147.766 222.718 143.529 218.424 140.495 212.857C137.462 207.29 135.971 200.795 136.022 193.371C136.074 185.948 137.612 179.472 140.637 173.945C143.747 168.419 148.044 164.18 153.526 161.229C159.007 158.278 165.29 156.826 172.372 156.872C179.284 156.918 185.418 158.408 190.774 161.345C196.129 164.281 200.282 168.447 203.231 173.843C206.266 179.238 207.758 185.52 207.709 192.688ZM185.349 186.782C185.375 183.027 184.116 180.032 181.571 177.797C179.027 175.562 175.835 174.431 171.995 174.406C168.325 174.382 165.203 175.428 162.629 177.545C160.139 179.662 158.582 182.681 157.958 186.603L185.349 186.782ZM251.269 209.357L267.11 158.516L290.406 158.668L264.567 229.925L237.559 229.748L212.711 158.16L236.135 158.313L251.269 209.357ZM366.705 193.728C366.691 195.776 366.548 197.909 366.277 200.125L316.742 199.801C317.053 204.241 318.437 207.663 320.895 210.069C323.439 212.39 326.545 213.562 330.215 213.586C335.676 213.622 339.489 211.342 341.654 206.749L364.95 206.901C363.723 211.586 361.517 215.796 358.334 219.53C355.236 223.264 351.333 226.183 346.625 228.286C341.917 230.388 336.662 231.42 330.859 231.382C323.862 231.337 317.643 229.803 312.203 226.78C306.762 223.758 302.525 219.464 299.492 213.897C296.458 208.33 294.967 201.835 295.019 194.411C295.07 186.987 296.609 180.512 299.634 174.985C302.744 169.459 307.04 165.22 312.522 162.269C318.004 159.318 324.286 157.866 331.369 157.912C338.281 157.957 344.414 159.448 349.77 162.385C355.126 165.321 359.279 169.487 362.228 174.882C365.263 180.278 366.755 186.56 366.705 193.728ZM344.346 187.822C344.372 184.067 343.112 181.072 340.568 178.837C338.023 176.601 334.831 175.471 330.991 175.446C327.322 175.422 324.2 176.468 321.625 178.585C319.136 180.702 317.579 183.721 316.954 187.643L344.346 187.822ZM400.541 136.092L399.884 230.81L377.996 230.667L378.653 135.949L400.541 136.092ZM448.25 232.15C441.253 232.105 434.948 230.57 429.337 227.546C423.811 224.524 419.446 220.228 416.242 214.661C413.124 209.093 411.59 202.598 411.641 195.174C411.692 187.836 413.358 181.404 416.639 175.878C419.921 170.268 424.388 165.987 430.041 163.038C435.693 160.088 442.018 158.636 449.015 158.682C456.012 158.727 462.317 160.262 467.928 163.285C473.539 166.309 477.946 170.647 481.15 176.3C484.354 181.868 485.931 188.321 485.88 195.66C485.829 202.998 484.12 209.472 480.753 215.082C477.472 220.608 472.962 224.845 467.224 227.794C461.572 230.744 455.247 232.196 448.25 232.15ZM448.381 213.207C452.562 213.234 456.114 211.721 459.037 208.668C462.045 205.616 463.569 201.231 463.608 195.514C463.648 189.797 462.228 185.393 459.348 182.302C456.553 179.211 453.065 177.653 448.884 177.625C444.617 177.597 441.065 179.11 438.228 182.164C435.392 185.132 433.953 189.517 433.913 195.32C433.873 201.037 435.208 205.44 437.917 208.53C440.712 211.621 444.2 213.179 448.381 213.207ZM519.557 170.279C521.713 166.965 524.675 164.297 528.444 162.273C532.213 160.25 536.615 159.255 541.649 159.288C547.537 159.326 552.86 160.854 557.618 163.872C562.376 166.89 566.101 171.181 568.793 176.745C571.57 182.31 572.934 188.762 572.883 196.101C572.832 203.439 571.379 209.915 568.524 215.529C565.755 221.057 561.97 225.342 557.171 228.383C552.371 231.338 547.028 232.796 541.14 232.758C536.191 232.725 531.803 231.673 527.977 229.6C524.237 227.527 521.311 224.863 519.201 221.606L518.895 265.637L497.008 265.494L497.739 160.024L519.627 160.168L519.557 170.279ZM550.611 195.955C550.649 190.494 549.143 186.217 546.092 183.125C543.127 179.948 539.426 178.345 534.989 178.316C530.637 178.288 526.914 179.842 523.821 182.979C520.812 186.117 519.289 190.417 519.251 195.878C519.213 201.339 520.677 205.658 523.641 208.835C526.691 212.012 530.392 213.615 534.744 213.644C539.096 213.672 542.819 212.118 545.913 208.981C549.007 205.758 550.573 201.416 550.611 195.955ZM651.699 195.592C651.685 197.64 651.542 199.773 651.271 201.989L601.736 201.665C602.046 206.105 603.431 209.527 605.889 211.933C608.433 214.254 611.539 215.426 615.209 215.45C620.67 215.486 624.483 213.206 626.648 208.613L649.944 208.765C648.717 213.45 646.511 217.66 643.328 221.394C640.23 225.128 636.327 228.047 631.619 230.15C626.911 232.252 621.656 233.284 615.853 233.246C608.856 233.201 602.637 231.667 597.197 228.644C591.756 225.622 587.519 221.328 584.486 215.761C581.452 210.194 579.961 203.699 580.013 196.275C580.064 188.851 581.602 182.376 584.628 176.849C587.738 171.323 592.034 167.084 597.516 164.133C602.998 161.182 609.28 159.73 616.363 159.776C623.275 159.821 629.408 161.312 634.764 164.249C640.12 167.185 644.272 171.351 647.222 176.746C650.256 182.142 651.749 188.424 651.699 195.592ZM629.34 189.686C629.366 185.931 628.106 182.936 625.562 180.701C623.017 178.465 619.825 177.335 615.985 177.31C612.316 177.286 609.194 178.332 606.619 180.449C604.13 182.566 602.573 185.585 601.948 189.507L629.34 189.686ZM685.291 173.155C687.878 169.247 691.099 166.196 694.954 164.002C698.81 161.724 703.085 160.599 707.778 160.63L707.617 183.798L701.601 183.758C696.14 183.723 692.036 184.89 689.289 187.262C686.542 189.548 685.149 193.635 685.108 199.523L684.878 232.674L662.99 232.531L663.486 161.108L685.373 161.252L685.291 173.155Z" fill="#111826"/>
</svg>
