<svg width="1186" height="910" viewBox="0 0 1186 910" fill="none" xmlns="http://www.w3.org/2000/svg">
<path d="M806.262 956.698C797.677 950.778 787.594 946.832 776.013 945.422C726.795 939.784 689.657 986.674 642.835 1001.99C580.739 1022.29 522.237 985.076 461.139 954.819C411.621 930.199 350.523 952.751 331.555 1002.37C301.006 1082.14 281.838 1165.78 274.75 1250.35C273.452 1265.38 269.558 1283.99 253.984 1287.56C232.321 1292.54 221.738 1263.69 221.139 1242.64C218.444 1146.04 227.429 986.862 218.244 930.105C216.347 918.359 203.868 910.842 191.688 914.225C176.414 918.453 166.431 932.267 167.828 947.207C169.925 969.666 178.311 996.634 178.311 996.634C179.609 1012.89 158.344 1021.54 146.664 1009.41C123.702 985.452 107.329 954.537 88.361 927.098C-17.662 773.556 -221.222 713.229 -408.51 663.802C-425.381 659.385 -443.252 654.875 -460.123 659.385C-493.667 668.406 -505.747 706.275 -512.636 738.412C-514.133 745.365 -515.531 752.507 -513.934 759.461C-507.045 787.651 -463.618 783.61 -434.067 775.529C-251.572 725.632 -41.3225 804.565 63.802 951.624C73.2861 964.967 55.7154 980.566 42.1381 970.887C-102.221 867.711 -296.297 826.741 -473.102 866.02C-542.286 881.336 -612.07 908.305 -681.953 896.089C-694.033 894.022 -706.013 890.733 -717.893 887.068C-740.955 880.021 -753.134 911.97 -730.472 920.145C-678.459 938.938 -620.556 943.355 -566.346 930.951C-495.564 914.789 -417.395 873.443 -356.496 911.124C-287.711 953.597 -296.497 1070.49 -219.026 1096.62C-197.861 1103.76 -167.113 1109.21 -168.41 1130.35C-169.509 1146.79 -190.673 1153.47 -207.246 1158.45C-354.5 1202.89 -384.749 1393.36 -509.741 1479.16C-550.572 1507.16 -599.89 1522.57 -640.722 1550.48C-666.579 1568.05 -689.241 1593.05 -698.825 1622.18C-707.61 1648.86 -690.04 1675.27 -715.497 1694.06C-760.722 1727.51 -827.71 1712.48 -877.227 1737.94C-929.041 1764.63 -948.608 1828.53 -999.423 1856.62C-1046.54 1882.75 -1106.54 1870.91 -1158.46 1854.65C-1253.8 1824.86 -1351.24 1776.94 -1395.76 1692.18C-1406.74 1671.23 -1411.44 1640.97 -1390.17 1628.85C-1378.79 1622.36 -1364.31 1624.24 -1351.04 1623.3C-1292.93 1619.07 -1256.59 1559.97 -1201.49 1542.3C-1150.47 1525.86 -1092.57 1547.66 -1041.15 1532.34C-990.238 1517.12 -959.29 1470.32 -927.443 1429.92C-839.29 1318.47 -712.103 1234.94 -570.539 1195.47C-562.153 1193.12 -553.068 1190.96 -544.882 1193.78C-530.506 1198.76 -526.313 1217.36 -532.503 1230.52C-538.692 1243.67 -551.87 1252.51 -564.549 1260.59C-600.19 1283.33 -636.429 1305.32 -673.268 1326.27C-687.644 1334.54 -676.163 1355.12 -660.788 1348.54C-585.614 1316.31 -519.524 1271.58 -485.681 1202.23C-481.088 1192.84 -477.095 1182.13 -480.29 1172.17C-487.078 1150.65 -518.626 1148.96 -542.087 1153.09C-654.699 1172.92 -760.522 1226.1 -840.788 1303.06C-902.086 1361.89 -951.603 1436.21 -1030.97 1471.08C-1081.29 1493.16 -1138.09 1496.82 -1192.7 1506.5C-1287.44 1523.32 -1378.09 1559.78 -1456.56 1612.4C-1465.25 1618.23 -1474.33 1624.99 -1477.62 1634.58C-1481.82 1646.98 -1474.93 1660.14 -1467.74 1671.32C-1404.75 1770.36 -1304.71 1847.98 -1189.41 1887.26C-1121.12 1910.56 -1038.86 1918.64 -980.954 1877.39C-936.927 1846.01 -913.566 1790.38 -862.651 1770.08C-824.016 1754.67 -778.791 1763.88 -738.658 1752.32C-691.936 1738.79 -653.301 1698.19 -611.171 1678.46C-595.797 1671.23 -598.692 1649.9 -615.564 1646.61C-625.048 1644.73 -633.534 1641.53 -639.224 1634.95C-660.09 1610.99 -622.652 1581.21 -592.902 1568.05C-522.02 1536.57 -459.225 1489.02 -411.405 1430.48C-365.382 1374.1 -333.335 1308.32 -284.716 1253.92C-236.097 1199.51 -162.92 1156 -88.5438 1168.31C-57.7951 1173.39 -24.3509 1196.03 -30.0414 1224.88C-32.7369 1238.51 -43.5189 1249.31 -54.2011 1258.9C-161.222 1355.5 -298.893 1422.59 -387.345 1534.5C-440.356 1601.6 -473.601 1682.5 -535.398 1742.64C-584.815 1790.75 -651.304 1823.08 -721.587 1833.13C-784.382 1842.15 -852.069 1834.45 -908.375 1862.17C-954.798 1885 -984.748 1927.48 -1010.01 1971.45C-1016.59 1982.92 -1007.61 1996.73 -993.832 1996.54H-993.433C-985.846 1996.45 -979.157 1991.84 -976.661 1985.08C-963.184 1948.9 -937.826 1910.28 -899.49 1916.48C-869.44 1921.37 -853.966 1951.72 -835.497 1974.55C-834.299 1975.96 -833.101 1977.37 -831.803 1978.78C-816.029 1995.32 -789.374 1973.8 -803.949 1956.23C-815.53 1942.32 -821.121 1926.54 -813.234 1910.56C-801.454 1886.79 -768.009 1883.12 -740.356 1879.55C-588.409 1859.91 -467.91 1745.84 -391.937 1620.39C-358.793 1565.7 -330.54 1506.31 -281.022 1463.93C-227.512 1418.17 -155.133 1397.41 -96.7301 1357.38C-59.0929 1331.53 -27.6454 1297.61 -5.48238 1258.99C8.09496 1235.41 18.1781 1206.84 7.0966 1182.13C-8.07807 1148.58 -52.5039 1139.37 -89.2426 1127.91C-176.098 1100.84 -248.876 1036.38 -282.819 956.416C-294.3 929.448 -288.31 885.095 -257.661 888.666C-233.003 891.579 -229.209 922.776 -223.219 945.516C-204.251 1017.59 -114.101 1044.84 -47.7119 1084.87C25.0666 1128.66 80.4741 1210.69 59.6089 1289.53C43.1364 1351.92 -15.4657 1396.28 -75.4655 1427C-101.921 1440.54 -129.475 1452.56 -156.43 1465.34C-173.702 1473.52 -162.321 1498.14 -144.251 1491.75C-85.1494 1470.98 -28.3442 1444.39 24.867 1412.35C48.6273 1398.06 72.188 1382.18 87.8618 1360.19C118.511 1317.44 113.419 1260.12 96.3476 1211.16C61.406 1111.37 -20.3575 1026.99 -122.787 985.17C-144.55 976.337 -172.104 960.269 -164.417 939.126C-155.931 915.728 -118.793 923.434 -96.1311 936.025C-33.5356 970.699 27.0633 1008.57 85.366 1049.35C123.103 1075.75 161.439 1105.64 177.412 1147.17C199.775 1205.52 173.419 1276.19 207.662 1329.28C213.652 1338.58 221.938 1347.23 233.019 1350.33C255.282 1356.53 276.347 1337.92 288.527 1319.41C344.933 1233.71 329.259 1122.55 365.698 1027.74C370.59 1014.96 376.68 1002.18 387.062 992.782C417.511 965.249 468.127 978.123 504.566 998.138C541.005 1018.15 578.543 1044.84 620.473 1039.77C652.419 1035.91 678.076 1014.3 706.429 999.829C734.782 985.358 774.715 979.814 795.381 1003.12C808.06 1017.4 808.758 1037.89 807.361 1056.49C798.575 1177.33 726.795 1292.73 619.175 1359.16C537.911 1409.34 439.175 1432.17 362.503 1488.46C320.174 1519.47 285.532 1559.97 238.81 1584.78C135.882 1639.47 -6.88009 1608.36 -96.6303 1680.81C-112.304 1693.5 -126.381 1714.08 -116.896 1731.46C-110.807 1742.45 -97.4289 1747.72 -85.0496 1751.85C-19.2594 1773.93 48.5274 1790.66 117.412 1801.84C139.276 1805.41 162.038 1808.42 183.302 1802.59C206.663 1796.3 225.532 1780.32 243.302 1764.82C365.099 1658.82 484.599 1550.38 601.504 1439.6C711.221 1335.67 824.432 1219.15 844.598 1073.78C850.588 1031.97 839.407 979.626 806.262 956.698ZM-379.458 727.982C-381.455 730.237 -387.644 733.056 -391.338 734.183C-410.806 740.479 -430.872 743.956 -451.538 744.52C-457.228 744.708 -464.416 744.332 -468.909 741.231C-476.097 736.439 -472.503 729.391 -466.613 725.162C-451.737 714.638 -423.085 712.383 -405.415 713.511C-400.024 713.98 -369.275 716.424 -379.458 727.982ZM447.761 1522.57C436.879 1575.76 399.741 1607.99 352.22 1634.11C312.786 1655.72 286.031 1670.85 254.983 1692.27C220.54 1716.05 187.396 1744.52 142.87 1749.31V1749.22C112.62 1750.16 89.7586 1750.44 74.3843 1750.16C49.9251 1749.69 -54.8999 1743.11 -60.4905 1713.32C-64.0845 1693.87 -31.0398 1682.69 -16.6638 1678.27C4.60072 1671.7 25.6656 1664.55 46.431 1656.85C77.9783 1645.1 109.026 1643.22 142.87 1645.95C154.051 1646.51 164.234 1646.61 173.519 1646.42C223.236 1645.29 269.658 1624.9 304.4 1591.54C309.492 1586.66 315.981 1579.42 323.968 1569.74C329.658 1562.79 342.437 1547 362.104 1522.48C372.187 1509.79 385.764 1497.67 401.139 1491.56C411.122 1487.61 427.595 1484.04 437.778 1489.31C449.358 1495.41 450.057 1511.58 447.761 1522.57Z" fill="#3F02E8" fill-opacity="0.04"/>
<path d="M2004.26 956.698C1995.68 950.778 1985.59 946.832 1974.01 945.422C1924.8 939.784 1887.66 986.674 1840.84 1001.99C1778.74 1022.29 1720.24 985.076 1659.14 954.819C1609.62 930.199 1548.52 952.751 1529.56 1002.37C1499.01 1082.14 1479.84 1165.78 1472.75 1250.35C1471.45 1265.38 1467.56 1283.99 1451.98 1287.56C1430.32 1292.54 1419.74 1263.69 1419.14 1242.64C1416.44 1146.04 1425.43 986.862 1416.24 930.105C1414.35 918.359 1401.87 910.842 1389.69 914.225C1374.41 918.453 1364.43 932.267 1365.83 947.207C1367.92 969.666 1376.31 996.634 1376.31 996.634C1377.61 1012.89 1356.34 1021.54 1344.66 1009.41C1321.7 985.452 1305.33 954.537 1286.36 927.098C1180.34 773.556 976.778 713.229 789.491 663.802C772.619 659.385 754.749 654.875 737.877 659.385C704.333 668.406 692.253 706.275 685.364 738.412C683.867 745.365 682.469 752.507 684.067 759.461C690.955 787.651 734.383 783.61 763.933 775.529C946.429 725.632 1156.68 804.565 1261.8 951.624C1271.29 964.967 1253.72 980.566 1240.14 970.887C1095.78 867.711 901.703 826.741 724.898 866.02C655.714 881.336 585.93 908.305 516.047 896.089C503.967 894.022 491.987 890.733 480.107 887.068C457.046 880.021 444.866 911.97 467.528 920.145C519.541 938.938 577.445 943.355 631.654 930.951C702.436 914.789 780.605 873.443 841.504 911.124C910.289 953.597 901.504 1070.49 978.974 1096.62C1000.14 1103.76 1030.89 1109.21 1029.59 1130.35C1028.49 1146.79 1007.33 1153.47 990.755 1158.45C843.5 1202.89 813.251 1393.36 688.26 1479.16C647.428 1507.16 598.11 1522.57 557.278 1550.48C531.421 1568.05 508.759 1593.05 499.175 1622.18C490.39 1648.86 507.961 1675.27 482.503 1694.06C437.279 1727.51 370.29 1712.48 320.773 1737.94C268.96 1764.63 249.392 1828.53 198.577 1856.62C151.456 1882.75 91.4559 1870.91 39.5426 1854.65C-55.7982 1824.86 -153.236 1776.94 -197.761 1692.18C-208.743 1671.23 -213.435 1640.97 -192.171 1628.85C-180.79 1622.36 -166.314 1624.24 -153.036 1623.3C-94.9329 1619.07 -58.5935 1559.97 -3.48553 1542.3C47.5293 1525.86 105.433 1547.66 156.847 1532.34C207.762 1517.12 238.71 1470.32 270.557 1429.92C358.71 1318.47 485.897 1234.94 627.461 1195.47C635.847 1193.12 644.932 1190.96 653.118 1193.78C667.494 1198.76 671.687 1217.36 665.498 1230.52C659.308 1243.67 646.13 1252.51 633.451 1260.59C597.811 1283.33 561.571 1305.32 524.733 1326.27C510.357 1334.54 521.837 1355.12 537.212 1348.54C612.386 1316.31 678.476 1271.58 712.319 1202.23C716.912 1192.84 720.905 1182.13 717.71 1172.17C710.922 1150.65 679.374 1148.96 655.914 1153.09C543.302 1172.92 437.478 1226.1 357.212 1303.06C295.915 1361.89 246.397 1436.21 167.03 1471.08C116.714 1493.16 59.9086 1496.82 5.29973 1506.5C-89.4421 1523.32 -180.091 1559.78 -258.56 1612.4C-267.245 1618.23 -276.33 1624.99 -279.625 1634.58C-283.818 1646.98 -276.929 1660.14 -269.741 1671.32C-206.746 1770.36 -106.713 1847.98 8.59428 1887.26C76.8803 1910.56 159.143 1918.64 217.046 1877.39C261.073 1846.01 284.434 1790.38 335.349 1770.08C373.984 1754.67 419.209 1763.88 459.342 1752.32C506.064 1738.79 544.699 1698.19 586.829 1678.46C602.203 1671.23 599.308 1649.9 582.436 1646.61C572.952 1644.73 564.466 1641.53 558.776 1634.95C537.911 1610.99 575.348 1581.21 605.098 1568.05C675.98 1536.57 738.775 1489.02 786.595 1430.48C832.619 1374.1 864.665 1308.32 913.284 1253.92C961.903 1199.51 1035.08 1156 1109.46 1168.31C1140.21 1173.39 1173.65 1196.03 1167.96 1224.88C1165.26 1238.51 1154.48 1249.31 1143.8 1258.9C1036.78 1355.5 899.107 1422.59 810.655 1534.5C757.644 1601.6 724.399 1682.5 662.603 1742.64C613.185 1790.75 546.696 1823.08 476.413 1833.13C413.618 1842.15 345.931 1834.45 289.625 1862.17C243.203 1885 213.253 1927.48 187.995 1971.45C181.406 1982.92 190.391 1996.73 204.168 1996.54H204.567C212.154 1996.45 218.843 1991.84 221.339 1985.08C234.817 1948.9 260.174 1910.28 298.51 1916.48C328.56 1921.37 344.034 1951.72 362.503 1974.55C363.701 1975.96 364.899 1977.37 366.197 1978.78C381.971 1995.32 408.626 1973.8 394.051 1956.23C382.47 1942.32 376.879 1926.54 384.766 1910.56C396.547 1886.79 429.991 1883.12 457.645 1879.55C609.591 1859.91 730.09 1745.84 806.063 1620.39C839.208 1565.7 867.46 1506.31 916.978 1463.93C970.488 1418.17 1042.87 1397.41 1101.27 1357.38C1138.91 1331.53 1170.35 1297.61 1192.52 1258.99C1206.09 1235.41 1216.18 1206.84 1205.1 1182.13C1189.92 1148.58 1145.5 1139.37 1108.76 1127.91C1021.9 1100.84 949.124 1036.38 915.181 956.416C903.7 929.448 909.69 885.095 940.339 888.666C964.998 891.579 968.791 922.776 974.781 945.516C993.75 1017.59 1083.9 1044.84 1150.29 1084.87C1223.07 1128.66 1278.47 1210.69 1257.61 1289.53C1241.14 1351.92 1182.53 1396.28 1122.53 1427C1096.08 1440.54 1068.52 1452.56 1041.57 1465.34C1024.3 1473.52 1035.68 1498.14 1053.75 1491.75C1112.85 1470.98 1169.66 1444.39 1222.87 1412.35C1246.63 1398.06 1270.19 1382.18 1285.86 1360.19C1316.51 1317.44 1311.42 1260.12 1294.35 1211.16C1259.41 1111.37 1177.64 1026.99 1075.21 985.17C1053.45 976.337 1025.9 960.269 1033.58 939.126C1042.07 915.728 1079.21 923.434 1101.87 936.025C1164.46 970.699 1225.06 1008.57 1283.37 1049.35C1321.1 1075.75 1359.44 1105.64 1375.41 1147.17C1397.78 1205.52 1371.42 1276.19 1405.66 1329.28C1411.65 1338.58 1419.94 1347.23 1431.02 1350.33C1453.28 1356.53 1474.35 1337.92 1486.53 1319.41C1542.93 1233.71 1527.26 1122.55 1563.7 1027.74C1568.59 1014.96 1574.68 1002.18 1585.06 992.782C1615.51 965.249 1666.13 978.123 1702.57 998.138C1739.01 1018.15 1776.54 1044.84 1818.47 1039.77C1850.42 1035.91 1876.08 1014.3 1904.43 999.829C1932.78 985.358 1972.72 979.814 1993.38 1003.12C2006.06 1017.4 2006.76 1037.89 2005.36 1056.49C1996.58 1177.33 1924.8 1292.73 1817.18 1359.16C1735.91 1409.34 1637.18 1432.17 1560.5 1488.46C1518.17 1519.47 1483.53 1559.97 1436.81 1584.78C1333.88 1639.47 1191.12 1608.36 1101.37 1680.81C1085.7 1693.5 1071.62 1714.08 1081.1 1731.46C1087.19 1742.45 1100.57 1747.72 1112.95 1751.85C1178.74 1773.93 1246.53 1790.66 1315.41 1801.84C1337.28 1805.41 1360.04 1808.42 1381.4 1802.59C1404.76 1796.3 1423.63 1780.32 1441.4 1764.82C1563.2 1658.82 1682.7 1550.38 1799.6 1439.6C1909.32 1335.67 2022.53 1219.15 2042.7 1073.78C2048.59 1031.97 2037.41 979.626 2004.26 956.698ZM818.542 727.982C816.545 730.237 810.356 733.056 806.662 734.183C787.194 740.479 767.128 743.956 746.462 744.52C740.772 744.708 733.584 744.332 729.091 741.231C721.903 736.439 725.497 729.391 731.388 725.162C746.263 714.638 774.915 712.383 792.585 713.511C797.976 713.98 828.725 716.424 818.542 727.982ZM1645.76 1522.57C1634.88 1575.76 1597.74 1607.99 1550.22 1634.11C1510.79 1655.72 1484.03 1670.85 1452.98 1692.27C1418.54 1716.05 1385.4 1744.52 1340.87 1749.31V1749.22C1310.62 1750.16 1287.76 1750.44 1272.38 1750.16C1247.93 1749.69 1143.1 1743.11 1137.51 1713.32C1133.92 1693.87 1166.96 1682.69 1181.34 1678.27C1202.6 1671.7 1223.67 1664.55 1244.43 1656.85C1275.98 1645.1 1307.03 1643.22 1340.87 1645.95C1352.05 1646.51 1362.23 1646.61 1371.52 1646.42C1421.24 1645.29 1467.66 1624.9 1502.4 1591.54C1507.49 1586.66 1513.98 1579.42 1521.97 1569.74C1527.66 1562.79 1540.44 1547 1560.1 1522.48C1570.19 1509.79 1583.76 1497.67 1599.14 1491.56C1609.12 1487.61 1625.59 1484.04 1635.78 1489.31C1647.36 1495.41 1648.06 1511.58 1645.76 1522.57Z" fill="#3F02E8" fill-opacity="0.04"/>
<path d="M806.262 -170.91C797.677 -176.83 787.593 -180.777 776.013 -182.187C726.795 -187.825 689.657 -140.935 642.835 -125.618C580.739 -105.321 522.237 -142.532 461.139 -172.79C411.621 -197.409 350.523 -174.857 331.555 -125.242C301.006 -45.464 281.838 38.1669 274.75 122.738C273.452 137.772 269.558 156.378 253.984 159.949C232.321 164.929 221.738 136.081 221.139 115.032C218.444 18.4338 227.429 -140.747 218.244 -197.503C216.347 -209.249 203.868 -216.767 191.688 -213.384C176.414 -209.155 166.431 -195.342 167.828 -180.401C169.925 -157.943 178.311 -130.974 178.311 -130.974C179.609 -114.718 158.344 -106.073 146.664 -118.195C123.702 -142.156 107.329 -173.072 88.3609 -200.51C-17.7619 -353.959 -221.322 -414.286 -408.609 -463.713C-425.481 -468.129 -443.351 -472.64 -460.223 -468.129C-493.767 -459.108 -505.847 -421.24 -512.736 -389.103C-514.233 -382.149 -515.631 -375.008 -514.033 -368.054C-507.145 -339.864 -463.717 -343.904 -434.167 -351.986C-251.671 -401.882 -41.4225 -322.95 63.702 -175.891C73.1862 -162.547 55.6156 -146.949 42.0382 -156.627C-102.321 -259.804 -296.397 -300.773 -473.202 -261.495C-542.386 -246.178 -612.17 -219.21 -682.053 -231.425C-694.133 -233.493 -706.113 -236.782 -717.993 -240.446C-741.054 -247.494 -753.234 -215.545 -730.572 -207.37C-678.559 -188.576 -620.655 -184.16 -566.446 -196.564C-495.664 -212.726 -417.495 -254.072 -356.596 -216.391C-287.811 -173.917 -296.596 -57.022 -219.126 -30.8991C-197.961 -23.7576 -167.212 -18.3074 -168.51 2.83523C-169.608 19.2795 -190.773 25.9511 -207.345 30.9314C-354.6 75.378 -384.849 265.85 -509.84 351.642C-550.672 379.644 -599.99 395.055 -640.822 422.963C-666.679 440.535 -689.341 465.531 -698.925 494.66C-707.71 521.347 -690.139 547.752 -715.597 566.546C-760.821 599.998 -827.81 584.963 -877.327 610.428C-929.14 637.115 -948.708 701.013 -999.523 729.109C-1046.64 755.232 -1106.64 743.392 -1158.56 727.136C-1253.9 697.348 -1351.34 649.425 -1395.86 564.666C-1406.84 543.711 -1411.54 513.454 -1390.27 501.332C-1378.89 494.848 -1364.41 496.728 -1351.14 495.788C-1293.03 491.56 -1256.69 432.454 -1201.59 414.788C-1150.57 398.344 -1092.67 420.144 -1041.25 404.828C-990.338 389.605 -959.39 342.809 -927.543 302.403C-839.39 190.958 -712.203 107.421 -570.639 67.9546C-562.253 65.6054 -553.168 63.4442 -544.982 66.2632C-530.606 71.2435 -526.413 89.849 -532.602 103.004C-538.792 116.16 -551.97 124.993 -564.649 133.074C-600.289 155.814 -636.529 177.802 -673.367 198.757C-687.743 207.026 -676.263 227.605 -660.888 221.027C-585.714 188.797 -519.624 144.068 -485.781 74.7203C-481.188 65.3235 -477.195 54.6112 -480.39 44.6507C-487.178 23.1322 -518.726 21.4408 -542.186 25.5753C-654.798 45.4024 -760.622 98.588 -840.888 175.547C-902.185 234.371 -951.703 308.699 -1031.07 343.561C-1081.39 365.643 -1138.19 369.308 -1192.8 378.987C-1287.54 395.807 -1378.19 432.266 -1456.66 484.888C-1465.35 490.714 -1474.43 497.48 -1477.72 507.064C-1481.92 519.468 -1475.03 532.623 -1467.84 543.805C-1404.85 642.847 -1304.81 720.464 -1189.51 759.742C-1121.22 783.046 -1038.96 791.128 -981.054 749.876C-937.027 718.491 -913.666 662.862 -862.751 642.565C-824.116 627.155 -778.891 636.363 -738.758 624.805C-692.036 611.274 -653.401 570.68 -611.271 550.947C-595.897 543.711 -598.792 522.381 -615.664 519.092C-625.148 517.213 -633.634 514.018 -639.324 507.44C-660.189 483.478 -622.752 453.691 -593.002 440.535C-522.12 409.056 -459.325 361.509 -411.505 302.967C-365.481 246.587 -333.435 180.809 -284.816 126.402C-236.197 71.9952 -163.019 28.4883 -88.6436 40.798C-57.895 45.8722 -24.4508 68.5184 -30.1413 97.3664C-32.8368 110.992 -43.6188 121.798 -54.3009 131.383C-161.322 227.981 -298.992 295.074 -387.445 406.989C-440.456 474.082 -473.701 554.988 -535.498 615.127C-584.915 663.238 -651.404 695.563 -721.687 705.617C-784.482 714.638 -852.169 706.933 -908.475 734.653C-954.897 757.487 -984.847 799.961 -1010.11 843.937C-1016.69 855.401 -1007.71 869.215 -993.932 869.027H-993.533C-985.946 868.933 -979.257 864.328 -976.761 857.563C-963.283 821.385 -937.926 782.765 -899.59 788.966C-869.54 793.853 -854.066 824.204 -835.597 847.038C-834.399 848.448 -833.201 849.857 -831.903 851.267C-816.129 867.805 -789.474 846.286 -804.049 828.715C-815.63 814.807 -821.221 799.021 -813.334 783.046C-801.553 759.273 -768.109 755.608 -740.455 752.037C-588.509 732.398 -468.01 618.322 -392.037 492.875C-358.892 438.186 -330.64 378.799 -281.122 336.419C-227.612 290.657 -155.232 269.89 -96.8299 229.86C-59.1928 204.019 -27.7452 170.097 -5.58223 131.477C7.9951 107.891 18.0782 79.3246 6.99675 54.6112C-8.17792 21.0649 -52.6038 11.8561 -89.3424 0.392071C-176.197 -26.6705 -248.976 -91.1322 -282.919 -171.098C-294.4 -198.067 -288.41 -242.42 -257.761 -238.849C-233.102 -235.936 -229.309 -204.739 -223.319 -181.999C-204.35 -109.926 -114.201 -82.6751 -47.8118 -42.645C24.9667 1.14379 80.3742 83.1773 59.5091 162.016C43.0366 224.41 -15.5657 268.763 -75.5655 299.49C-102.021 313.022 -129.575 325.049 -156.53 337.829C-173.801 346.004 -162.42 370.624 -144.351 364.234C-85.2492 343.467 -28.4442 316.874 24.767 284.831C48.5273 270.548 72.0881 254.668 87.7619 232.679C118.411 189.924 113.319 132.604 96.2478 83.6472C61.3061 -16.1462 -20.4574 -100.529 -122.886 -142.344C-144.65 -151.177 -172.204 -167.246 -164.517 -188.388C-156.031 -211.786 -118.893 -204.081 -96.2309 -191.489C-33.6354 -156.815 26.9634 -118.947 85.2661 -78.1647C123.003 -51.7598 161.339 -21.8783 177.312 19.6553C199.675 78.0091 173.319 148.673 207.562 201.764C213.552 211.067 221.838 219.712 232.92 222.813C255.182 229.015 276.247 210.409 288.427 191.898C344.833 106.199 329.159 -4.96407 365.598 -99.7772C370.49 -112.557 376.58 -125.336 386.962 -134.733C417.412 -162.265 468.027 -149.392 504.466 -129.377C540.905 -109.362 578.443 -82.6751 620.373 -87.7494C652.319 -91.602 677.976 -113.215 706.329 -127.685C734.682 -142.156 774.615 -147.701 795.281 -124.397C807.959 -110.114 808.658 -89.6287 807.261 -71.0231C798.475 49.8189 726.695 165.211 619.075 231.646C537.81 281.824 439.075 304.658 362.403 360.945C320.074 391.954 285.432 432.454 238.71 457.261C135.782 511.95 -6.97994 480.847 -96.7301 553.296C-112.404 565.982 -126.48 586.561 -116.996 603.945C-110.906 614.939 -97.5288 620.201 -85.1495 624.335C-19.3593 646.418 48.4276 663.144 117.313 674.326C139.176 677.897 161.938 680.904 183.203 675.078C206.564 668.782 225.432 652.808 243.202 637.303C364.999 531.308 484.499 422.869 601.404 312.082C711.52 208.436 824.632 91.9163 844.798 -53.4513C850.588 -95.6426 839.407 -147.982 806.262 -170.91ZM-379.458 -399.627C-381.455 -397.372 -387.644 -394.553 -391.338 -393.425C-410.806 -387.129 -430.872 -383.653 -451.538 -383.089C-457.228 -382.901 -464.416 -383.277 -468.909 -386.378C-476.097 -391.17 -472.503 -398.218 -466.613 -402.446C-451.737 -412.97 -423.085 -415.226 -405.415 -414.098C-400.024 -413.628 -369.275 -411.185 -379.458 -399.627ZM447.761 394.961C436.879 448.147 399.741 480.377 352.22 506.5C312.786 528.113 286.031 543.242 254.983 564.666C220.54 588.44 187.396 616.912 142.87 621.704V621.61C112.62 622.55 89.7586 622.832 74.3842 622.55C49.9251 622.08 -54.8999 615.503 -60.4906 585.715C-64.0846 566.264 -31.0398 555.081 -16.6638 550.665C4.60067 544.087 25.6656 536.946 46.4309 529.241C77.9782 517.495 109.026 515.615 142.87 518.34C154.051 518.904 164.234 518.998 173.519 518.81C223.236 517.683 269.658 497.292 304.4 463.933C309.492 459.047 315.981 451.811 323.968 442.133C329.658 435.179 342.437 419.393 362.104 394.867C372.187 382.182 385.764 370.06 401.139 363.952C411.122 360.005 427.595 356.434 437.778 361.697C449.358 367.805 450.057 383.967 447.761 394.961Z" fill="#3F02E8" fill-opacity="0.04"/>
<path d="M3202.26 -170.91C3193.68 -176.83 3183.59 -180.777 3172.01 -182.187C3122.8 -187.825 3085.66 -140.935 3038.84 -125.618C2976.74 -105.321 2918.24 -142.532 2857.14 -172.79C2807.62 -197.409 2746.52 -174.857 2727.55 -125.242C2697.01 -45.464 2677.84 38.1669 2670.75 122.738C2669.45 137.772 2665.56 156.378 2649.98 159.949C2628.32 164.929 2617.74 136.081 2617.14 115.032C2613.84 -2.89684 2610.55 -120.826 2607.26 -238.755C2606.96 -249.373 2597.57 -257.83 2586.29 -257.736C2574.41 -257.548 2565.03 -247.964 2565.92 -236.782L2574.31 -130.88C2575.61 -114.624 2554.34 -105.979 2542.66 -118.101C2519.7 -142.062 2503.33 -172.978 2484.36 -200.416C2378.24 -353.959 2174.68 -414.286 1987.39 -463.713C1970.52 -468.129 1952.65 -472.64 1935.78 -468.129C1902.23 -459.108 1890.15 -421.24 1883.26 -389.103C1881.77 -382.149 1880.37 -375.008 1881.97 -368.054C1888.86 -339.864 1932.28 -343.904 1961.83 -351.986C2144.33 -401.882 2354.58 -322.95 2459.7 -175.891C2469.19 -162.547 2451.62 -146.949 2438.04 -156.627C2293.68 -259.804 2099.6 -300.773 1922.8 -261.495C1853.61 -246.178 1783.83 -219.21 1713.95 -231.425C1701.87 -233.493 1689.89 -236.782 1678.01 -240.446C1654.95 -247.494 1642.77 -215.545 1665.43 -207.37C1717.44 -188.576 1775.34 -184.16 1829.55 -196.564C1900.34 -212.726 1978.51 -254.072 2039.4 -216.391C2108.19 -173.917 2099.4 -57.022 2176.87 -30.8991C2198.04 -23.7576 2228.79 -18.3074 2227.49 2.83523C2226.39 19.2795 2205.23 25.9511 2188.65 30.9314C2041.4 75.378 2011.15 265.85 1886.16 351.642C1845.33 379.644 1796.01 395.055 1755.18 422.963C1729.32 440.535 1706.66 465.531 1697.08 494.66C1688.29 521.347 1705.86 547.752 1680.4 566.546C1635.18 599.998 1568.19 584.963 1518.67 610.428C1466.86 637.115 1447.29 701.013 1396.48 729.109C1349.36 755.232 1289.36 743.392 1237.44 727.136C1142.1 697.348 1044.66 649.425 1000.14 564.666C989.157 543.711 984.465 513.454 1005.73 501.332C1017.11 494.848 1031.59 496.728 1044.86 495.788C1102.97 491.56 1139.31 432.454 1194.41 414.788C1245.43 398.344 1303.33 420.144 1354.75 404.828C1405.66 389.605 1436.61 342.809 1468.46 302.403C1556.61 190.958 1683.8 107.421 1825.36 67.9546C1833.75 65.6054 1842.83 63.4442 1851.02 66.2632C1865.39 71.2435 1869.59 89.849 1863.4 103.004C1857.21 116.16 1844.03 124.993 1831.35 133.074C1795.71 155.814 1759.47 177.802 1722.63 198.757C1708.26 207.026 1719.74 227.605 1735.11 221.027C1810.29 188.797 1876.38 144.068 1910.22 74.7203C1914.81 65.3235 1918.81 54.6112 1915.61 44.6507C1908.82 23.1322 1877.27 21.4408 1853.81 25.5753C1741.2 45.4024 1635.38 98.588 1555.11 175.547C1493.81 234.371 1444.3 308.699 1364.93 343.561C1314.61 365.643 1257.81 369.308 1203.2 378.987C1108.46 395.807 1017.81 432.266 939.34 484.888C930.655 490.714 921.57 497.48 918.275 507.064C914.082 519.468 920.971 532.623 928.159 543.805C991.154 642.847 1091.19 720.464 1206.49 759.742C1274.78 783.046 1357.04 791.128 1414.95 749.876C1458.97 718.491 1482.33 662.862 1533.25 642.565C1571.88 627.155 1617.11 636.363 1657.24 624.805C1703.96 611.274 1742.6 570.68 1784.73 550.947C1800.1 543.711 1797.21 522.381 1780.34 519.092C1770.85 517.213 1762.37 514.018 1756.68 507.44C1735.81 483.478 1773.25 453.691 1803 440.535C1873.88 409.056 1936.68 361.509 1984.5 302.967C2030.52 246.587 2062.57 180.809 2111.18 126.402C2159.8 71.9952 2232.98 28.4883 2307.36 40.798C2338.11 45.8722 2371.55 68.5184 2365.86 97.3664C2363.16 110.992 2352.38 121.798 2341.7 131.383C2234.68 227.981 2097.01 295.074 2008.56 406.989C1955.54 474.082 1922.3 554.988 1860.5 615.127C1811.08 663.238 1744.6 695.563 1674.31 705.617C1611.52 714.638 1543.83 706.933 1487.52 734.653C1441.1 757.487 1411.15 799.961 1385.89 843.937C1379.31 855.401 1388.29 869.215 1402.07 869.027H1402.47C1410.05 868.933 1416.74 864.328 1419.24 857.563C1432.72 821.385 1458.07 782.765 1496.41 788.966C1526.46 793.853 1541.93 824.204 1560.4 847.038C1561.6 848.448 1562.8 849.857 1564.1 851.267C1579.87 867.805 1606.53 846.286 1591.95 828.715C1580.37 814.807 1574.78 799.021 1582.67 783.046C1594.45 759.273 1627.89 755.608 1655.54 752.037C1807.49 732.398 1927.99 618.322 2003.96 492.875C2037.11 438.186 2065.36 378.799 2114.88 336.419C2168.39 290.657 2240.77 269.89 2299.17 229.86C2336.81 204.019 2368.25 170.097 2390.42 131.477C2404 107.891 2414.08 79.3246 2403 54.6112C2387.82 21.0649 2343.4 11.8561 2306.66 0.392071C2219.8 -26.6705 2147.02 -91.1322 2113.08 -171.098C2101.6 -198.067 2107.59 -242.42 2138.24 -238.849C2162.9 -235.936 2166.69 -204.739 2172.68 -181.999C2191.65 -109.926 2281.8 -82.6751 2348.19 -42.645C2420.97 1.14379 2476.37 83.1773 2455.51 162.016C2439.04 224.41 2380.43 268.763 2320.43 299.49C2293.98 313.022 2266.42 325.049 2239.47 337.829C2222.2 346.004 2233.58 370.624 2251.65 364.234C2310.75 343.467 2367.56 316.874 2420.77 284.831C2444.53 270.548 2468.09 254.668 2483.76 232.679C2514.41 189.924 2509.32 132.604 2492.25 83.6472C2457.31 -16.1462 2375.54 -100.529 2273.11 -142.344C2251.35 -151.177 2223.8 -167.246 2231.48 -188.388C2239.97 -211.786 2277.11 -204.081 2299.77 -191.489C2362.36 -156.815 2422.96 -118.947 2481.27 -78.1647C2519 -51.7598 2557.34 -21.8783 2573.31 19.6553C2595.68 78.0091 2569.32 148.673 2603.56 201.764C2609.55 211.067 2617.84 219.712 2628.92 222.813C2651.18 229.015 2672.25 210.409 2684.43 191.898C2740.83 106.199 2725.16 -4.96407 2761.6 -99.7772C2766.49 -112.557 2772.58 -125.336 2782.96 -134.733C2813.41 -162.265 2864.03 -149.392 2900.47 -129.377C2936.91 -109.362 2974.44 -82.6751 3016.37 -87.7494C3048.32 -91.602 3073.98 -113.215 3102.33 -127.685C3130.68 -142.156 3170.62 -147.701 3191.28 -124.397C3203.96 -110.114 3204.66 -89.6287 3203.26 -71.0231C3194.48 49.8189 3122.7 165.211 3015.08 231.646C2933.81 281.824 2835.08 304.658 2758.4 360.945C2716.07 391.954 2681.43 432.454 2634.71 457.261C2531.78 511.95 2389.02 480.847 2299.27 553.296C2283.6 565.982 2269.52 586.561 2279 603.945C2285.09 614.939 2298.47 620.201 2310.85 624.335C2376.64 646.418 2444.43 663.144 2513.31 674.326C2535.18 677.897 2557.94 680.904 2579.3 675.078C2602.66 668.782 2621.53 652.808 2639.3 637.303C2761.1 531.308 2880.6 422.869 2997.5 312.082C3107.52 208.436 3220.63 91.9163 3240.8 -53.4513C3246.59 -95.6426 3235.41 -147.982 3202.26 -170.91ZM2016.54 -399.627C2014.55 -397.372 2008.36 -394.553 2004.66 -393.425C1985.19 -387.129 1965.13 -383.653 1944.46 -383.089C1938.77 -382.901 1931.58 -383.277 1927.09 -386.378C1919.9 -391.17 1923.5 -398.218 1929.39 -402.446C1944.26 -412.97 1972.91 -415.226 1990.59 -414.098C1995.98 -413.628 2026.72 -411.185 2016.54 -399.627ZM2843.76 394.961C2832.88 448.147 2795.74 480.377 2748.22 506.5C2708.79 528.113 2682.03 543.242 2650.98 564.666C2616.54 588.44 2583.4 616.912 2538.87 621.704V621.61C2508.62 622.55 2485.76 622.832 2470.38 622.55C2445.92 622.08 2341.1 615.503 2335.51 585.715C2331.92 566.264 2364.96 555.081 2379.34 550.665C2400.6 544.087 2421.67 536.946 2442.43 529.241C2473.98 517.495 2505.03 515.615 2538.87 518.34C2550.05 518.904 2560.23 518.998 2569.52 518.81C2619.24 517.683 2665.66 497.292 2700.4 463.933C2705.49 459.047 2711.98 451.811 2719.97 442.133C2725.66 435.179 2738.44 419.393 2758.1 394.867C2768.19 382.182 2781.76 370.06 2797.14 363.952C2807.12 360.005 2823.59 356.434 2833.78 361.697C2845.36 367.805 2846.06 383.967 2843.76 394.961Z" fill="#3F02E8" fill-opacity="0.04"/>
<path d="M385.665 10.2586C389.059 11.2923 390.557 20.5011 390.656 23.3201C391.655 37.979 388.859 54.4233 380.174 66.921C371.788 78.9488 368.094 63.914 368.094 58.4639C368.094 44.9326 370.69 31.8711 375.881 19.2795C377.478 15.6148 381.072 8.75516 385.665 10.2586Z" fill="#3F02E8" fill-opacity="0.04"/>
<path d="M882.635 39.7644C883.334 39.7644 883.933 40.3282 884.033 40.986C884.232 50.3827 863.966 70.3978 853.883 69.74C853.484 69.74 853.184 69.5521 852.985 69.1762C848.692 60.6252 873.65 39.7644 882.635 39.7644Z" fill="#3F02E8" fill-opacity="0.04"/>
<path d="M1055.65 121.328C1048.46 116.724 1069.72 106.293 1073.02 104.696C1081.3 100.749 1089.99 98.212 1099.27 96.9904C1102.87 96.5206 1112.25 97.6481 1109.56 103.286C1103.17 116.911 1073.62 122.456 1059.64 122.456C1058.44 122.362 1056.44 121.892 1055.65 121.328Z" fill="#3F02E8" fill-opacity="0.04"/>
<path d="M919.773 216.799C911.287 224.88 904.299 221.027 907.394 209.751C909.79 200.73 914.183 192.649 920.272 185.32C923.168 181.843 933.65 171.882 938.841 176.205C941.936 178.836 940.439 184.662 939.241 187.857C935.148 198.569 928.758 208.248 919.773 216.799Z" fill="#3F02E8" fill-opacity="0.04"/>
<path d="M618.276 812.74C600.306 814.807 582.336 816.875 564.366 819.036C554.383 820.164 544.2 821.385 535.015 825.144C533.318 825.802 531.621 826.647 530.323 827.869C526.33 831.816 530.223 835.386 534.416 836.702C539.009 838.111 543.801 838.581 548.593 838.863C557.777 839.427 566.962 839.145 576.147 838.205C590.523 836.608 604.998 833.037 616.978 825.426C620.173 823.359 623.268 821.009 624.965 817.721C625.364 817.063 625.664 816.311 625.564 815.465C625.464 814.15 624.166 813.116 622.769 812.74C621.371 812.364 619.974 812.552 618.576 812.74C618.476 812.646 618.376 812.646 618.276 812.74Z" fill="#3F02E8" fill-opacity="0.04"/>
<path d="M665.497 457.543C664 457.356 663.201 455.852 663.7 454.631C666.096 448.899 681.97 441.193 687.96 438.562C698.841 433.676 739.374 417.325 749.557 423.433C749.856 423.621 750.156 423.997 750.256 424.279C752.152 432.548 736.179 441.569 729.89 444.012C713.916 450.308 697.244 454.631 680.073 456.886C673.484 457.825 670.489 458.295 665.497 457.543Z" fill="#3F02E8" fill-opacity="0.04"/>
<path d="M892.718 639.746C884.232 632.041 821.537 571.244 833.417 561.377C837.71 557.807 847.693 565.982 851.088 568.989C865.763 582.238 885.929 601.032 911.587 625.275C916.478 629.88 954.415 665.587 942.635 669.722C931.853 673.481 901.304 647.546 892.718 639.746Z" fill="#3F02E8" fill-opacity="0.04"/>
<path d="M2004.26 -170.91C1995.68 -176.83 1985.59 -180.777 1974.01 -182.187C1924.8 -187.825 1887.66 -140.935 1840.84 -125.618C1778.74 -105.321 1720.24 -142.532 1659.14 -172.79C1609.62 -197.409 1548.52 -174.857 1529.55 -125.242C1499.01 -45.464 1479.84 38.1669 1472.75 122.738C1471.45 137.772 1467.56 156.378 1451.98 159.949C1430.32 164.929 1419.74 136.081 1419.14 115.032C1415.84 -2.89684 1412.55 -120.826 1409.26 -238.755C1408.96 -249.373 1399.57 -257.83 1388.29 -257.736C1376.41 -257.548 1367.03 -247.964 1367.92 -236.782L1376.31 -130.88C1377.61 -114.624 1356.34 -105.979 1344.66 -118.101C1321.7 -142.062 1305.33 -172.978 1286.36 -200.416C1180.24 -353.959 976.678 -414.286 789.391 -463.713C772.519 -468.129 754.649 -472.64 737.777 -468.129C704.233 -459.108 692.153 -421.24 685.264 -389.103C683.767 -382.149 682.369 -375.008 683.967 -368.054C690.855 -339.864 734.283 -343.904 763.833 -351.986C946.329 -401.882 1156.58 -322.95 1261.7 -175.891C1271.19 -162.547 1253.62 -146.949 1240.04 -156.627C1095.68 -259.804 901.603 -300.773 724.798 -261.495C655.614 -246.178 585.83 -219.21 515.947 -231.425C503.867 -233.493 491.887 -236.782 480.007 -240.446C456.946 -247.494 444.766 -215.545 467.428 -207.37C519.441 -188.576 577.345 -184.16 631.554 -196.564C702.336 -212.726 780.505 -254.072 841.404 -216.391C910.189 -173.917 901.403 -57.022 978.874 -30.8991C1000.04 -23.7576 1030.79 -18.3074 1029.49 2.83523C1028.39 19.2795 1007.23 25.9511 990.655 30.9314C843.4 75.378 813.151 265.85 688.16 351.642C647.328 379.644 598.01 395.055 557.178 422.963C531.321 440.535 508.659 465.531 499.075 494.66C490.29 521.347 507.861 547.752 482.403 566.546C437.179 599.998 370.19 584.963 320.673 610.428C268.86 637.115 249.292 701.013 198.477 729.109C151.356 755.232 91.3559 743.392 39.4426 727.136C-55.8982 697.348 -153.336 649.425 -197.861 564.666C-208.843 543.711 -213.535 513.454 -192.271 501.332C-180.89 494.848 -166.414 496.728 -153.136 495.788C-95.0329 491.56 -58.6935 432.454 -3.58553 414.788C47.4293 398.344 105.333 420.144 156.747 404.828C207.662 389.605 238.61 342.809 270.457 302.403C358.61 190.958 485.797 107.421 627.361 67.9546C635.747 65.6054 644.832 63.4442 653.018 66.2632C667.394 71.2435 671.587 89.849 665.398 103.004C659.208 116.16 646.03 124.993 633.351 133.074C597.711 155.814 561.471 177.802 524.633 198.757C510.257 207.026 521.737 227.605 537.112 221.027C612.286 188.797 678.376 144.068 712.219 74.7203C716.812 65.3235 720.805 54.6112 717.61 44.6507C710.822 23.1322 679.274 21.4408 655.814 25.5753C543.202 45.4024 437.378 98.588 357.112 175.547C295.815 234.371 246.297 308.699 166.93 343.561C116.614 365.643 59.8086 369.308 5.19973 378.987C-89.5421 395.807 -180.191 432.266 -258.66 484.888C-267.345 490.714 -276.43 497.48 -279.725 507.064C-283.918 519.468 -277.029 532.623 -269.841 543.805C-206.846 642.847 -106.813 720.464 8.49427 759.742C76.7803 783.046 159.043 791.128 216.946 749.876C260.973 718.491 284.334 662.862 335.249 642.565C373.884 627.155 419.109 636.363 459.242 624.805C505.964 611.274 544.599 570.68 586.729 550.947C602.103 543.711 599.208 522.381 582.336 519.092C572.852 517.213 564.366 514.018 558.676 507.44C537.811 483.478 575.248 453.691 604.998 440.535C675.88 409.056 738.675 361.509 786.495 302.967C832.519 246.587 864.565 180.809 913.184 126.402C961.803 71.9952 1034.98 28.4883 1109.36 40.798C1140.11 45.8722 1173.55 68.5184 1167.86 97.3664C1165.16 110.992 1154.38 121.798 1143.7 131.383C1036.68 227.981 899.008 295.074 810.555 406.989C757.544 474.082 724.299 554.988 662.502 615.127C613.085 663.238 546.596 695.563 476.313 705.617C413.518 714.638 345.831 706.933 289.525 734.653C243.103 757.487 213.153 799.961 187.895 843.937C181.306 855.401 190.291 869.215 204.068 869.027H204.467C212.054 868.933 218.743 864.328 221.239 857.563C234.717 821.385 260.074 782.765 298.41 788.966C328.46 793.853 343.934 824.204 362.403 847.038C363.601 848.448 364.799 849.857 366.097 851.267C381.871 867.805 408.526 846.286 393.951 828.715C382.37 814.807 376.779 799.021 384.666 783.046C396.447 759.273 429.891 755.608 457.545 752.037C609.491 732.398 729.99 618.322 805.963 492.875C839.108 438.186 867.36 378.799 916.878 336.419C970.388 290.657 1042.77 269.89 1101.17 229.86C1138.81 204.019 1170.25 170.097 1192.42 131.477C1206 107.891 1216.08 79.3246 1205 54.6112C1189.82 21.0649 1145.4 11.8561 1108.66 0.392071C1021.8 -26.6705 949.024 -91.1322 915.081 -171.098C903.6 -198.067 909.59 -242.42 940.239 -238.849C964.898 -235.936 968.691 -204.739 974.681 -181.999C993.65 -109.926 1083.8 -82.6751 1150.19 -42.645C1222.97 1.14379 1278.37 83.1773 1257.51 162.016C1241.04 224.41 1182.43 268.763 1122.43 299.49C1095.98 313.022 1068.42 325.049 1041.47 337.829C1024.2 346.004 1035.58 370.624 1053.65 364.234C1112.75 343.467 1169.56 316.874 1222.77 284.831C1246.53 270.548 1270.09 254.668 1285.76 232.679C1316.41 189.924 1311.32 132.604 1294.25 83.6472C1259.31 -16.1462 1177.54 -100.529 1075.11 -142.344C1053.35 -151.177 1025.8 -167.246 1033.48 -188.388C1041.97 -211.786 1079.11 -204.081 1101.77 -191.489C1164.36 -156.815 1224.96 -118.947 1283.27 -78.1647C1321 -51.7598 1359.34 -21.8783 1375.31 19.6553C1397.68 78.0091 1371.32 148.673 1405.56 201.764C1411.55 211.067 1419.84 219.712 1430.92 222.813C1453.18 229.015 1474.25 210.409 1486.43 191.898C1542.83 106.199 1527.16 -4.96407 1563.6 -99.7772C1568.49 -112.557 1574.58 -125.336 1584.96 -134.733C1615.41 -162.265 1666.03 -149.392 1702.47 -129.377C1738.91 -109.362 1776.44 -82.6751 1818.37 -87.7494C1850.32 -91.602 1875.98 -113.215 1904.33 -127.685C1932.68 -142.156 1972.62 -147.701 1993.28 -124.397C2005.96 -110.114 2006.66 -89.6287 2005.26 -71.0231C1996.48 49.8189 1924.7 165.211 1817.08 231.646C1735.81 281.824 1637.08 304.658 1560.4 360.945C1518.07 391.954 1483.43 432.454 1436.71 457.261C1333.78 511.95 1191.02 480.847 1101.27 553.296C1085.6 565.982 1071.52 586.561 1081 603.945C1087.09 614.939 1100.47 620.201 1112.85 624.335C1178.64 646.418 1246.43 663.144 1315.31 674.326C1337.18 677.897 1359.94 680.904 1381.3 675.078C1404.66 668.782 1423.53 652.808 1441.3 637.303C1563.1 531.308 1682.6 422.869 1799.5 312.082C1909.52 208.436 2022.63 91.9163 2042.8 -53.4513C2048.59 -95.6426 2037.41 -147.982 2004.26 -170.91ZM818.542 -399.627C816.545 -397.372 810.355 -394.553 806.662 -393.425C787.194 -387.129 767.128 -383.653 746.462 -383.089C740.772 -382.901 733.584 -383.277 729.091 -386.378C721.903 -391.17 725.497 -398.218 731.387 -402.446C746.263 -412.97 774.915 -415.226 792.585 -414.098C797.976 -413.628 828.725 -411.185 818.542 -399.627ZM1645.76 394.961C1634.88 448.147 1597.74 480.377 1550.22 506.5C1510.79 528.113 1484.03 543.242 1452.98 564.666C1418.54 588.44 1385.4 616.912 1340.87 621.704V621.61C1310.62 622.55 1287.76 622.832 1272.38 622.55C1247.92 622.08 1143.1 615.503 1137.51 585.715C1133.92 566.264 1166.96 555.081 1181.34 550.665C1202.6 544.087 1223.67 536.946 1244.43 529.241C1275.98 517.495 1307.03 515.615 1340.87 518.34C1352.05 518.904 1362.23 518.998 1371.52 518.81C1421.24 517.683 1467.66 497.292 1502.4 463.933C1507.49 459.047 1513.98 451.811 1521.97 442.133C1527.66 435.179 1540.44 419.393 1560.1 394.867C1570.19 382.182 1583.76 370.06 1599.14 363.952C1609.12 360.005 1625.59 356.434 1635.78 361.697C1647.36 367.805 1648.06 383.967 1645.76 394.961Z" fill="#3F02E8" fill-opacity="0.04"/>
<path d="M84.6672 849.67C77.4792 845.065 98.7437 834.635 102.038 833.037C110.324 829.091 119.01 826.554 128.294 825.332C131.888 824.862 141.273 825.99 138.577 831.628C132.188 845.253 102.637 850.797 88.6605 850.797C87.5623 850.797 85.5657 850.233 84.6672 849.67Z" fill="#3F02E8" fill-opacity="0.04"/>
<path d="M285.432 915.165C276.946 923.246 269.958 919.393 273.053 908.117C275.449 899.096 279.842 891.015 285.931 883.686C288.827 880.209 299.309 870.248 304.5 874.571C307.595 877.202 306.098 883.028 304.9 886.223C300.906 896.935 294.417 906.614 285.432 915.165Z" fill="#3F02E8" fill-opacity="0.04"/>
<path d="M186.198 295.262C168.228 297.329 150.258 299.396 132.288 301.557C122.304 302.685 112.121 303.907 102.937 307.665C101.24 308.323 99.5425 309.169 98.2447 310.39C94.2513 314.337 98.1448 317.908 102.338 319.223C106.93 320.633 111.722 321.103 116.514 321.385C125.699 321.948 134.883 321.667 144.068 320.727C158.444 319.129 172.92 315.559 184.9 307.947C188.095 305.88 191.189 303.531 192.887 300.242C193.286 299.584 193.585 298.832 193.486 297.987C193.386 296.671 192.088 295.638 190.69 295.262C189.293 294.886 187.895 295.074 186.497 295.262C186.397 295.168 186.298 295.262 186.198 295.262Z" fill="#3F02E8" fill-opacity="0.04"/>
<path d="M407.528 255.983C408.227 255.983 408.826 256.547 408.926 257.205C409.126 266.602 388.86 286.617 378.776 285.959C378.377 285.959 378.078 285.771 377.878 285.395C373.485 276.844 398.543 255.983 407.528 255.983Z" fill="#3F02E8" fill-opacity="0.04"/>
</svg>
